<svg width="145" height="41" viewBox="0 0 145 41" fill="none" xmlns="http://www.w3.org/2000/svg">
<path d="M41.1048 20.32C41.1048 31.5424 32.0073 40.64 20.7848 40.64C9.56242 40.64 0.464844 31.5424 0.464844 20.32C0.464844 9.09757 9.56242 0 20.7848 0C32.0073 0 41.1048 9.09757 41.1048 20.32Z" fill="url(#paint0_linear_1338_2022)"/>
<path d="M41.1048 20.32C41.1048 31.5424 32.0073 40.64 20.7848 40.64C9.56242 40.64 0.464844 31.5424 0.464844 20.32C0.464844 9.09757 9.56242 0 20.7848 0C32.0073 0 41.1048 9.09757 41.1048 20.32Z" fill="url(#paint1_radial_1338_2022)"/>
<path d="M41.1048 20.32C41.1048 31.5424 32.0073 40.64 20.7848 40.64C9.56242 40.64 0.464844 31.5424 0.464844 20.32C0.464844 9.09757 9.56242 0 20.7848 0C32.0073 0 41.1048 9.09757 41.1048 20.32Z" fill="#F54D2C"/>
<path d="M12.5244 16.9448L20.7862 16.9448V20.7002V24.4555V31.9663H12.5244V16.9448Z" fill="white"/>
<path d="M20.7861 8.68237L29.0479 8.68237V10.7478V12.8133V16.9442H20.7861V8.68237Z" fill="white"/>
<path d="M60.0107 21.9443H56.1289V29H52.4546V11.0068H61.2803C62.5417 11.0312 63.5101 11.1859 64.1855 11.4707C64.8691 11.7555 65.4469 12.1746 65.9189 12.728C66.3096 13.1838 66.6188 13.6883 66.8467 14.2417C67.0745 14.7951 67.1885 15.4258 67.1885 16.1338C67.1885 16.9883 66.9728 17.8306 66.5415 18.6606C66.1102 19.4826 65.3981 20.0645 64.4053 20.4062C65.2354 20.7399 65.8213 21.216 66.1631 21.8345C66.513 22.4448 66.688 23.3807 66.688 24.6421V25.8506C66.688 26.6725 66.7205 27.23 66.7856 27.5229C66.8833 27.9868 67.1112 28.3286 67.4692 28.5483V29H63.3311C63.2171 28.6012 63.1357 28.2798 63.0869 28.0356C62.9893 27.5311 62.9364 27.0143 62.9282 26.4854L62.9038 24.813C62.8875 23.6655 62.6759 22.9006 62.269 22.5181C61.8703 22.1356 61.1175 21.9443 60.0107 21.9443ZM62.2935 18.6729C63.0422 18.3311 63.4165 17.6556 63.4165 16.6465C63.4165 15.556 63.0544 14.8236 62.3301 14.4492C61.9232 14.2376 61.3128 14.1318 60.499 14.1318H56.1289V18.9658H60.3892C61.2355 18.9658 61.8703 18.8682 62.2935 18.6729ZM81.5439 25.0938C81.4544 25.8831 81.0435 26.6847 80.311 27.4985C79.1717 28.7925 77.5767 29.4395 75.5259 29.4395C73.8332 29.4395 72.3398 28.8942 71.0459 27.8037C69.752 26.7132 69.105 24.9391 69.105 22.4814C69.105 20.1784 69.6868 18.4124 70.8506 17.1836C72.0225 15.9548 73.5402 15.3403 75.4038 15.3403C76.5106 15.3403 77.5075 15.5479 78.3945 15.9629C79.2816 16.3779 80.014 17.033 80.5918 17.9282C81.1126 18.7176 81.4504 19.6331 81.605 20.6748C81.6945 21.2852 81.7311 22.1641 81.7148 23.3115H72.6084C72.6572 24.6462 73.0763 25.582 73.8657 26.1191C74.3459 26.4528 74.9237 26.6196 75.5991 26.6196C76.3153 26.6196 76.8971 26.4162 77.3447 26.0093C77.5889 25.7896 77.8045 25.4844 77.9917 25.0938H81.5439ZM78.1016 21.0166C78.0446 20.097 77.7638 19.4012 77.2593 18.9292C76.7629 18.4491 76.1444 18.209 75.4038 18.209C74.5981 18.209 73.9715 18.4613 73.5239 18.9658C73.0845 19.4704 72.8078 20.154 72.6938 21.0166H78.1016ZM93.2383 16.3047C94.2799 16.972 94.8781 18.1195 95.0327 19.7471H91.5537C91.5049 19.2995 91.3787 18.9455 91.1753 18.6851C90.7928 18.2131 90.1418 17.9771 89.2222 17.9771C88.4653 17.9771 87.9242 18.0951 87.5986 18.3311C87.2812 18.5671 87.1226 18.8438 87.1226 19.1611C87.1226 19.5599 87.2935 19.8488 87.6353 20.0278C87.9771 20.215 89.1855 20.5365 91.2607 20.9922C92.6442 21.3177 93.6818 21.8101 94.3735 22.4692C95.0571 23.1366 95.3989 23.9707 95.3989 24.9717C95.3989 26.29 94.9066 27.3683 93.9219 28.2065C92.9453 29.0366 91.4316 29.4517 89.3809 29.4517C87.2894 29.4517 85.7432 29.0122 84.7422 28.1333C83.7493 27.2463 83.2529 26.1191 83.2529 24.752H86.7808C86.854 25.3704 87.0127 25.8099 87.2568 26.0703C87.6882 26.5342 88.4857 26.7661 89.6494 26.7661C90.333 26.7661 90.8742 26.6644 91.2729 26.4609C91.6799 26.2575 91.8833 25.9523 91.8833 25.5454C91.8833 25.1548 91.7205 24.8577 91.395 24.6543C91.0695 24.4508 89.861 24.1009 87.7695 23.6045C86.264 23.2301 85.202 22.7622 84.5835 22.2007C83.965 21.6473 83.6558 20.8498 83.6558 19.8081C83.6558 18.5793 84.1359 17.5254 85.0962 16.6465C86.0646 15.7594 87.4237 15.3159 89.1733 15.3159C90.8335 15.3159 92.1885 15.6455 93.2383 16.3047ZM104.078 26.522V29.1221L102.43 29.1831C100.786 29.2401 99.6632 28.9552 99.061 28.3286C98.6704 27.9299 98.4751 27.3154 98.4751 26.4854V18.2944H96.6196V15.8164H98.4751V12.1055H101.917V15.8164H104.078V18.2944H101.917V25.3257C101.917 25.8709 101.987 26.2127 102.125 26.3511C102.263 26.4813 102.687 26.5464 103.395 26.5464C103.5 26.5464 103.61 26.5464 103.724 26.5464C103.846 26.5382 103.964 26.5301 104.078 26.522ZM117.408 17.3789C118.531 18.7868 119.093 20.451 119.093 22.3716C119.093 24.3247 118.531 25.9971 117.408 27.3887C116.285 28.7721 114.58 29.4639 112.293 29.4639C110.007 29.4639 108.302 28.7721 107.179 27.3887C106.056 25.9971 105.494 24.3247 105.494 22.3716C105.494 20.451 106.056 18.7868 107.179 17.3789C108.302 15.971 110.007 15.2671 112.293 15.2671C114.58 15.2671 116.285 15.971 117.408 17.3789ZM112.281 18.209C111.264 18.209 110.479 18.5711 109.925 19.2954C109.38 20.0116 109.107 21.0369 109.107 22.3716C109.107 23.7062 109.38 24.7357 109.925 25.46C110.479 26.1842 111.264 26.5464 112.281 26.5464C113.299 26.5464 114.08 26.1842 114.625 25.46C115.17 24.7357 115.443 23.7062 115.443 22.3716C115.443 21.0369 115.17 20.0116 114.625 19.2954C114.08 18.5711 113.299 18.209 112.281 18.209ZM128.285 18.9048C126.885 18.9048 125.945 19.3605 125.465 20.272C125.196 20.7847 125.062 21.5741 125.062 22.6401V29H121.559V15.6943H124.879V18.0137C125.416 17.1266 125.884 16.5203 126.283 16.1948C126.934 15.6496 127.78 15.377 128.822 15.377C128.887 15.377 128.94 15.381 128.98 15.3892C129.029 15.3892 129.131 15.3932 129.286 15.4014V18.9658C129.066 18.9414 128.871 18.9251 128.7 18.917C128.529 18.9089 128.39 18.9048 128.285 18.9048ZM131.837 17.1348C132.757 15.9629 134.335 15.377 136.573 15.377C138.03 15.377 139.324 15.6659 140.455 16.2437C141.586 16.8215 142.152 17.9119 142.152 19.5151V25.6187C142.152 26.0418 142.16 26.5545 142.176 27.1567C142.201 27.6125 142.27 27.9217 142.384 28.0845C142.498 28.2472 142.669 28.3815 142.896 28.4873V29H139.112C139.007 28.7314 138.933 28.4792 138.893 28.2432C138.852 28.0072 138.819 27.7386 138.795 27.4375C138.315 27.9583 137.761 28.4019 137.135 28.7681C136.386 29.1994 135.54 29.415 134.596 29.415C133.391 29.415 132.394 29.0732 131.605 28.3896C130.824 27.6979 130.433 26.7214 130.433 25.46C130.433 23.8242 131.064 22.6401 132.325 21.9077C133.017 21.509 134.034 21.2241 135.377 21.0532L136.561 20.9067C137.204 20.8254 137.664 20.7236 137.94 20.6016C138.437 20.39 138.685 20.0604 138.685 19.6128C138.685 19.0675 138.494 18.6932 138.111 18.4897C137.737 18.2782 137.184 18.1724 136.451 18.1724C135.629 18.1724 135.047 18.3758 134.706 18.7827C134.461 19.0838 134.299 19.4907 134.217 20.0034H130.86C130.934 18.8397 131.259 17.8835 131.837 17.1348ZM134.425 26.4854C134.75 26.7539 135.149 26.8882 135.621 26.8882C136.37 26.8882 137.057 26.6685 137.684 26.229C138.319 25.7896 138.648 24.988 138.673 23.8242V22.5303C138.453 22.6686 138.229 22.7826 138.001 22.8721C137.782 22.9535 137.477 23.0308 137.086 23.104L136.305 23.2505C135.572 23.3807 135.047 23.5394 134.73 23.7266C134.193 24.0439 133.924 24.5363 133.924 25.2036C133.924 25.7977 134.091 26.2249 134.425 26.4854Z" fill="black"/>
<defs>
<linearGradient id="paint0_linear_1338_2022" x1="20.7848" y1="0" x2="20.7848" y2="40.64" gradientUnits="userSpaceOnUse">
<stop stop-color="#4BFF4B"/>
<stop offset="1" stop-color="#1CF0FB"/>
</linearGradient>
<radialGradient id="paint1_radial_1338_2022" cx="0" cy="0" r="1" gradientUnits="userSpaceOnUse" gradientTransform="translate(32.1852 3.77826) rotate(-163.825) scale(34.5731 34.6543)">
<stop stop-color="#C2C9EC"/>
<stop offset="1" stop-opacity="0"/>
</radialGradient>
</defs>
</svg>
