<svg width="41" height="41" viewBox="0 0 41 41" fill="none" xmlns="http://www.w3.org/2000/svg">
<g clip-path="url(#clip0_1351_1993)">
<path d="M30.4648 17.552V12.552C30.4648 7.552 10.4648 7.552 10.4648 12.552V17.552C5.46484 17.602 0.464844 18.8833 0.464844 21.302V32.552C0.464844 36.9958 16.9648 37.552 20.4648 33.9208C23.9836 37.552 40.4648 36.9708 40.4648 32.552V21.302C40.4648 18.8895 35.4648 17.6083 30.4648 17.552ZM39.2148 21.302C39.2148 22.3208 35.6836 23.802 30.1523 23.802C24.6211 23.802 21.0898 22.3208 21.0898 21.302C21.0898 20.2833 24.3523 18.9208 29.5211 18.802C27.8648 18.852 24.2148 19.1333 24.2148 20.677C24.2148 22.4645 29.1586 22.552 30.1523 22.552C31.1461 22.552 36.0898 22.4645 36.0898 20.677C36.0898 19.1458 32.4398 18.8645 30.7836 18.802C35.9523 18.9208 39.2148 20.3208 39.2148 21.302ZM15.2586 20.677C13.4398 21.5083 8.11484 21.5083 6.29609 20.677C8.11484 19.8458 13.4398 19.8458 15.2586 20.677ZM34.6336 20.677C32.8148 21.5083 27.4898 21.5083 25.6711 20.677C27.4898 19.8458 32.8148 19.8458 34.6336 20.677ZM20.4648 19.9333C19.0586 18.4895 15.4648 17.6833 11.7148 17.5645V14.4395C15.3523 16.8895 25.5773 16.8895 29.2148 14.4395V17.5645C25.4648 17.6833 21.8711 18.4895 20.4648 19.9333ZM24.7961 11.927C23.0648 12.7583 17.8773 12.7645 16.1336 11.927C17.8648 11.0958 23.0523 11.0895 24.7961 11.927ZM19.8398 10.052C18.2273 10.102 14.6898 10.3833 14.6898 11.927C14.6898 13.7145 19.4961 13.802 20.4586 13.802C21.4211 13.802 26.2273 13.7145 26.2273 11.927C26.2273 10.3958 22.6898 10.1145 21.0773 10.052C26.0773 10.1583 29.2023 11.5583 29.2023 12.552C29.2023 13.5458 25.7961 15.052 20.4523 15.052C15.1086 15.052 11.7023 13.5708 11.7023 12.552C11.7023 11.5333 14.8398 10.1708 19.8398 10.052ZM10.1461 18.802C8.48984 18.8645 4.83984 19.1458 4.83984 20.677C4.83984 22.4645 9.78359 22.552 10.7773 22.552C11.7711 22.552 16.7148 22.4645 16.7148 20.677C16.7148 19.1458 13.0648 18.8645 11.4086 18.802C16.5773 18.9208 19.8398 20.3208 19.8398 21.302C19.8398 22.2833 16.3086 23.802 10.7773 23.802C5.24609 23.802 1.71484 22.3208 1.71484 21.302C1.71484 20.2833 4.97734 18.9208 10.1461 18.802ZM10.7711 35.052C5.24609 35.052 1.71484 33.5708 1.71484 32.552V23.177C5.46484 25.677 16.0898 25.677 19.8398 23.177V32.552C19.8398 33.5708 16.3086 35.052 10.7773 35.052H10.7711ZM30.1461 35.052C24.6211 35.052 21.0898 33.5708 21.0898 32.552V23.177C24.8398 25.677 35.4648 25.677 39.2148 23.177V32.552C39.2148 33.5708 35.6836 35.052 30.1523 35.052H30.1461Z" fill="white"/>
<path d="M6.08984 32.552C5.92408 32.552 5.76511 32.6178 5.6479 32.7351C5.53069 32.8523 5.46484 33.0112 5.46484 33.177C5.46484 33.3428 5.53069 33.5017 5.6479 33.6189C5.76511 33.7362 5.92408 33.802 6.08984 33.802C6.2556 33.802 6.41458 33.7362 6.53179 33.6189C6.649 33.5017 6.71484 33.3428 6.71484 33.177C6.71484 33.0112 6.649 32.8523 6.53179 32.7351C6.41458 32.6178 6.2556 32.552 6.08984 32.552Z" fill="white"/>
<path d="M3.58984 30.677C3.42408 30.677 3.26511 30.7428 3.1479 30.8601C3.03069 30.9773 2.96484 31.1362 2.96484 31.302C2.96484 31.4678 3.03069 31.6267 3.1479 31.7439C3.26511 31.8612 3.42408 31.927 3.58984 31.927C3.7556 31.927 3.91458 31.8612 4.03179 31.7439C4.149 31.6267 4.21484 31.4678 4.21484 31.302C4.21484 31.1362 4.149 30.9773 4.03179 30.8601C3.91458 30.7428 3.7556 30.677 3.58984 30.677Z" fill="white"/>
<path d="M6.71484 29.427C6.54908 29.427 6.39011 29.4928 6.2729 29.6101C6.15569 29.7273 6.08984 29.8862 6.08984 30.052C6.08984 30.2178 6.15569 30.3767 6.2729 30.4939C6.39011 30.6112 6.54908 30.677 6.71484 30.677C6.8806 30.677 7.03958 30.6112 7.15679 30.4939C7.274 30.3767 7.33984 30.2178 7.33984 30.052C7.33984 29.8862 7.274 29.7273 7.15679 29.6101C7.03958 29.4928 6.8806 29.427 6.71484 29.427Z" fill="white"/>
<path d="M25.4648 31.927C25.2991 31.927 25.1401 31.9928 25.0229 32.1101C24.9057 32.2273 24.8398 32.3862 24.8398 32.552C24.8398 32.7178 24.9057 32.8767 25.0229 32.9939C25.1401 33.1112 25.2991 33.177 25.4648 33.177C25.6306 33.177 25.7896 33.1112 25.9068 32.9939C26.024 32.8767 26.0898 32.7178 26.0898 32.552C26.0898 32.3862 26.024 32.2273 25.9068 32.1101C25.7896 31.9928 25.6306 31.927 25.4648 31.927Z" fill="white"/>
<path d="M22.9648 30.052C22.7991 30.052 22.6401 30.1178 22.5229 30.2351C22.4057 30.3523 22.3398 30.5112 22.3398 30.677C22.3398 30.8428 22.4057 31.0017 22.5229 31.1189C22.6401 31.2362 22.7991 31.302 22.9648 31.302C23.1306 31.302 23.2896 31.2362 23.4068 31.1189C23.524 31.0017 23.5898 30.8428 23.5898 30.677C23.5898 30.5112 23.524 30.3523 23.4068 30.2351C23.2896 30.1178 23.1306 30.052 22.9648 30.052Z" fill="white"/>
<path d="M26.0898 28.802C25.9241 28.802 25.7651 28.8678 25.6479 28.9851C25.5307 29.1023 25.4648 29.2612 25.4648 29.427C25.4648 29.5928 25.5307 29.7517 25.6479 29.8689C25.7651 29.9862 25.9241 30.052 26.0898 30.052C26.2556 30.052 26.4146 29.9862 26.5318 29.8689C26.649 29.7517 26.7148 29.5928 26.7148 29.427C26.7148 29.2612 26.649 29.1023 26.5318 28.9851C26.4146 28.8678 26.2556 28.802 26.0898 28.802Z" fill="white"/>
</g>
<defs>
<clipPath id="clip0_1351_1993">
<rect width="40" height="40" fill="white" transform="translate(0.464844 0.052002)"/>
</clipPath>
</defs>
</svg>
