<svg width="41" height="41" viewBox="0 0 41 41" fill="none" xmlns="http://www.w3.org/2000/svg">
<g clip-path="url(#clip0_1343_2803)">
<path d="M39.0148 21.4978C39.1342 21.2565 39.2024 20.9932 39.2153 20.7243C39.2282 20.4555 39.1855 20.1868 39.0898 19.9353C39.4768 19.8199 39.8162 19.5827 40.0576 19.259C40.2989 18.9352 40.4292 18.5422 40.4292 18.1384C40.4292 17.7346 40.2989 17.3416 40.0576 17.0178C39.8162 16.694 39.4768 16.4569 39.0898 16.3415C39.567 15.7836 39.8325 15.0756 39.8398 14.3415C39.8283 11.0414 38.5123 7.87985 36.1788 5.54634C33.8452 3.21284 30.6836 1.89678 27.3836 1.88525H13.5461C10.246 1.89678 7.08444 3.21284 4.75093 5.54634C2.41743 7.87985 1.10137 11.0414 1.08984 14.3415C1.09193 15.0732 1.35071 15.781 1.82109 16.3415C1.43411 16.4569 1.09471 16.694 0.853384 17.0178C0.612054 17.3416 0.481692 17.7346 0.481692 18.1384C0.481692 18.5422 0.612054 18.9352 0.853384 19.259C1.09471 19.5827 1.43411 19.8199 1.82109 19.9353C1.72506 20.1868 1.68214 20.4554 1.69505 20.7244C1.70795 20.9933 1.77641 21.2566 1.89609 21.4978C1.46758 21.7004 1.1055 22.0207 0.852092 22.4213C0.59868 22.8219 0.464377 23.2862 0.464844 23.7603C0.464844 25.0103 0.339844 25.7665 1.08984 26.6228C0.846707 26.8166 0.664788 27.0765 0.565999 27.3713C0.467209 27.6662 0.455762 27.9833 0.533037 28.2844C0.610312 28.5856 0.773012 28.858 1.00154 29.0688C1.23007 29.2797 1.51468 29.4199 1.82109 29.4728C1.76031 29.646 1.72454 29.8269 1.71484 30.0103C1.71484 32.1651 2.57087 34.2318 4.0946 35.7555C5.61833 37.2792 7.68496 38.1353 9.83984 38.1353H31.0898C33.2447 38.1353 35.3114 37.2792 36.8351 35.7555C38.3588 34.2318 39.2148 32.1651 39.2148 30.0103C39.2148 29.4978 39.0461 29.4853 39.2148 29.454C39.5088 29.3833 39.7769 29.2315 39.9887 29.0157C40.2005 28.7999 40.3473 28.529 40.4125 28.2338C40.4777 27.9386 40.4585 27.631 40.3573 27.3461C40.256 27.0613 40.0767 26.8106 39.8398 26.6228C40.5898 25.7665 40.4648 25.0103 40.4648 23.7603C40.4636 23.2842 40.3265 22.8184 40.0697 22.4176C39.8128 22.0168 39.4469 21.6977 39.0148 21.4978ZM27.7211 21.3103C27.5586 21.379 27.7648 21.204 24.6398 24.3228C10.3336 21.0728 11.1961 21.2603 11.0898 21.2603H3.54609C3.38033 21.2603 3.22136 21.1944 3.10415 21.0772C2.98694 20.96 2.92109 20.801 2.92109 20.6353C2.92109 20.4695 2.98694 20.3105 3.10415 20.1933C3.22136 20.0761 3.38033 20.0103 3.54609 20.0103H37.3836C37.5494 20.0103 37.7083 20.0761 37.8255 20.1933C37.9427 20.3105 38.0086 20.4695 38.0086 20.6353C38.0086 20.801 37.9427 20.96 37.8255 21.0772C37.7083 21.1944 37.5494 21.2603 37.3836 21.2603C27.2023 21.2603 27.8961 21.2603 27.7211 21.3103ZM13.5461 3.13525H27.3836C30.3521 3.14678 33.1958 4.33113 35.2949 6.43022C37.394 8.5293 38.5783 11.373 38.5898 14.3415C38.5882 14.8499 38.3855 15.337 38.026 15.6964C37.6666 16.0559 37.1795 16.2586 36.6711 16.2603H4.25859C3.75022 16.2586 3.26313 16.0559 2.90365 15.6964C2.54417 15.337 2.34149 14.8499 2.33984 14.3415C2.35137 11.373 3.53572 8.5293 5.63481 6.43022C7.73389 4.33113 10.5776 3.14678 13.5461 3.13525ZM2.33984 17.5103H38.5898C38.7556 17.5103 38.9146 17.5761 39.0318 17.6933C39.149 17.8105 39.2148 17.9695 39.2148 18.1353C39.2148 18.301 39.149 18.46 39.0318 18.5772C38.9146 18.6944 38.7556 18.7603 38.5898 18.7603H2.33984C2.17408 18.7603 2.01511 18.6944 1.8979 18.5772C1.78069 18.46 1.71484 18.301 1.71484 18.1353C1.71484 17.9695 1.78069 17.8105 1.8979 17.6933C2.01511 17.5761 2.17408 17.5103 2.33984 17.5103ZM1.71484 23.7603C1.71484 23.4287 1.84654 23.1108 2.08096 22.8764C2.31538 22.6419 2.63332 22.5103 2.96484 22.5103H11.0211L24.7023 25.6353C25.1586 25.7353 25.0148 25.729 28.2211 22.5103H37.9648C38.2964 22.5103 38.6143 22.6419 38.8487 22.8764C39.0831 23.1108 39.2148 23.4287 39.2148 23.7603V25.0103C39.2148 25.3418 39.0831 25.6597 38.8487 25.8941C38.6143 26.1286 38.2964 26.2603 37.9648 26.2603H2.96484C2.63332 26.2603 2.31538 26.1286 2.08096 25.8941C1.84654 25.6597 1.71484 25.3418 1.71484 25.0103V23.7603ZM31.0898 36.8853H9.83984C8.0294 36.8854 6.29199 36.1713 5.00481 34.8982C3.71763 33.6251 2.98459 31.8956 2.96484 30.0853C3.55853 30.466 4.25369 30.6577 4.95859 30.6353C7.07109 30.6353 7.20234 29.3853 8.83359 29.3853C10.4648 29.3853 10.6023 30.6353 12.7086 30.6353C14.8148 30.6353 14.9523 29.3853 16.5836 29.3853C18.2148 29.3853 18.3523 30.6353 20.4586 30.6353C22.5648 30.6353 22.7023 29.3853 24.3336 29.3853C25.9648 29.3853 26.0711 30.6353 28.2023 30.6353C30.3336 30.6353 30.4648 29.3853 32.0836 29.3853C33.7023 29.3853 33.8523 30.6353 35.9586 30.6353C36.665 30.654 37.3611 30.4626 37.9586 30.0853C37.9389 31.8945 37.2067 33.623 35.9209 34.896C34.635 36.169 32.8992 36.8837 31.0898 36.8853ZM38.9023 28.2353C37.5148 28.5665 37.3961 29.3853 35.9586 29.3853C34.3336 29.3853 34.1898 28.1353 32.0836 28.1353C29.9773 28.1353 29.8336 29.3853 28.2023 29.3853C26.5711 29.3853 26.4398 28.1353 24.3336 28.1353C22.2273 28.1353 22.0898 29.3853 20.4648 29.3853C18.8398 29.3853 18.6961 28.1353 16.5898 28.1353C14.4836 28.1353 14.3461 29.3853 12.7148 29.3853C11.0836 29.3853 10.9648 28.1353 8.83984 28.1353C6.71484 28.1353 6.59609 29.3853 4.96484 29.3853C3.53359 29.3853 3.40234 28.5603 2.02734 28.2353C1.9312 28.2286 1.84163 28.1841 1.77834 28.1114C1.71505 28.0387 1.68321 27.9439 1.68984 27.8478C1.69647 27.7516 1.74102 27.662 1.8137 27.5988C1.88637 27.5355 1.9812 27.5036 2.07734 27.5103H38.8523C38.9485 27.5036 39.0433 27.5355 39.116 27.5988C39.1887 27.662 39.2332 27.7516 39.2398 27.8478C39.2465 27.9439 39.2146 28.0387 39.1513 28.1114C39.0881 28.1841 38.9985 28.2286 38.9023 28.2353Z" fill="#231F20"/>
<path d="M20.4648 6.26025C20.6306 6.26025 20.7896 6.19441 20.9068 6.0772C21.024 5.95999 21.0898 5.80101 21.0898 5.63525C21.0898 5.46949 21.024 5.31052 20.9068 5.19331C20.7896 5.0761 20.6306 5.01025 20.4648 5.01025C20.2991 5.01025 20.1401 5.0761 20.0229 5.19331C19.9057 5.31052 19.8398 5.46949 19.8398 5.63525C19.8398 5.80101 19.9057 5.95999 20.0229 6.0772C20.1401 6.19441 20.2991 6.26025 20.4648 6.26025Z" fill="#231F20"/>
<path d="M17.9648 10.6353C18.1306 10.6353 18.2896 10.5694 18.4068 10.4522C18.524 10.335 18.5898 10.176 18.5898 10.0103C18.5898 9.84449 18.524 9.68552 18.4068 9.56831C18.2896 9.4511 18.1306 9.38525 17.9648 9.38525C17.7991 9.38525 17.6401 9.4511 17.5229 9.56831C17.4057 9.68552 17.3398 9.84449 17.3398 10.0103C17.3398 10.176 17.4057 10.335 17.5229 10.4522C17.6401 10.5694 17.7991 10.6353 17.9648 10.6353Z" fill="#231F20"/>
<path d="M12.9648 10.6353C13.1306 10.6353 13.2896 10.5694 13.4068 10.4522C13.524 10.335 13.5898 10.176 13.5898 10.0103C13.5898 9.84449 13.524 9.68552 13.4068 9.56831C13.2896 9.4511 13.1306 9.38525 12.9648 9.38525C12.7991 9.38525 12.6401 9.4511 12.5229 9.56831C12.4057 9.68552 12.3398 9.84449 12.3398 10.0103C12.3398 10.176 12.4057 10.335 12.5229 10.4522C12.6401 10.5694 12.7991 10.6353 12.9648 10.6353Z" fill="#231F20"/>
<path d="M7.96484 10.6353C8.1306 10.6353 8.28958 10.5694 8.40679 10.4522C8.524 10.335 8.58984 10.176 8.58984 10.0103C8.58984 9.84449 8.524 9.68552 8.40679 9.56831C8.28958 9.4511 8.1306 9.38525 7.96484 9.38525C7.79908 9.38525 7.64011 9.4511 7.5229 9.56831C7.40569 9.68552 7.33984 9.84449 7.33984 10.0103C7.33984 10.176 7.40569 10.335 7.5229 10.4522C7.64011 10.5694 7.79908 10.6353 7.96484 10.6353Z" fill="#231F20"/>
<path d="M22.9648 10.6353C23.1306 10.6353 23.2896 10.5694 23.4068 10.4522C23.524 10.335 23.5898 10.176 23.5898 10.0103C23.5898 9.84449 23.524 9.68552 23.4068 9.56831C23.2896 9.4511 23.1306 9.38525 22.9648 9.38525C22.7991 9.38525 22.6401 9.4511 22.5229 9.56831C22.4057 9.68552 22.3398 9.84449 22.3398 10.0103C22.3398 10.176 22.4057 10.335 22.5229 10.4522C22.6401 10.5694 22.7991 10.6353 22.9648 10.6353Z" fill="#231F20"/>
<path d="M27.9648 10.6353C28.1306 10.6353 28.2896 10.5694 28.4068 10.4522C28.524 10.335 28.5898 10.176 28.5898 10.0103C28.5898 9.84449 28.524 9.68552 28.4068 9.56831C28.2896 9.4511 28.1306 9.38525 27.9648 9.38525C27.7991 9.38525 27.6401 9.4511 27.5229 9.56831C27.4057 9.68552 27.3398 9.84449 27.3398 10.0103C27.3398 10.176 27.4057 10.335 27.5229 10.4522C27.6401 10.5694 27.7991 10.6353 27.9648 10.6353Z" fill="#231F20"/>
<path d="M32.9648 10.6353C33.1306 10.6353 33.2896 10.5694 33.4068 10.4522C33.524 10.335 33.5898 10.176 33.5898 10.0103C33.5898 9.84449 33.524 9.68552 33.4068 9.56831C33.2896 9.4511 33.1306 9.38525 32.9648 9.38525C32.7991 9.38525 32.6401 9.4511 32.5229 9.56831C32.4057 9.68552 32.3398 9.84449 32.3398 10.0103C32.3398 10.176 32.4057 10.335 32.5229 10.4522C32.6401 10.5694 32.7991 10.6353 32.9648 10.6353Z" fill="#231F20"/>
<path d="M15.4648 6.26025C15.6306 6.26025 15.7896 6.19441 15.9068 6.0772C16.024 5.95999 16.0898 5.80101 16.0898 5.63525C16.0898 5.46949 16.024 5.31052 15.9068 5.19331C15.7896 5.0761 15.6306 5.01025 15.4648 5.01025C15.2991 5.01025 15.1401 5.0761 15.0229 5.19331C14.9057 5.31052 14.8398 5.46949 14.8398 5.63525C14.8398 5.80101 14.9057 5.95999 15.0229 6.0772C15.1401 6.19441 15.2991 6.26025 15.4648 6.26025Z" fill="#231F20"/>
<path d="M10.4648 6.26025C10.6306 6.26025 10.7896 6.19441 10.9068 6.0772C11.024 5.95999 11.0898 5.80101 11.0898 5.63525C11.0898 5.46949 11.024 5.31052 10.9068 5.19331C10.7896 5.0761 10.6306 5.01025 10.4648 5.01025C10.2991 5.01025 10.1401 5.0761 10.0229 5.19331C9.90569 5.31052 9.83984 5.46949 9.83984 5.63525C9.83984 5.80101 9.90569 5.95999 10.0229 6.0772C10.1401 6.19441 10.2991 6.26025 10.4648 6.26025Z" fill="#231F20"/>
<path d="M25.4648 6.26025C25.6306 6.26025 25.7896 6.19441 25.9068 6.0772C26.024 5.95999 26.0898 5.80101 26.0898 5.63525C26.0898 5.46949 26.024 5.31052 25.9068 5.19331C25.7896 5.0761 25.6306 5.01025 25.4648 5.01025C25.2991 5.01025 25.1401 5.0761 25.0229 5.19331C24.9057 5.31052 24.8398 5.46949 24.8398 5.63525C24.8398 5.80101 24.9057 5.95999 25.0229 6.0772C25.1401 6.19441 25.2991 6.26025 25.4648 6.26025Z" fill="#231F20"/>
<path d="M30.4648 6.26025C30.6306 6.26025 30.7896 6.19441 30.9068 6.0772C31.024 5.95999 31.0898 5.80101 31.0898 5.63525C31.0898 5.46949 31.024 5.31052 30.9068 5.19331C30.7896 5.0761 30.6306 5.01025 30.4648 5.01025C30.2991 5.01025 30.1401 5.0761 30.0229 5.19331C29.9057 5.31052 29.8398 5.46949 29.8398 5.63525C29.8398 5.80101 29.9057 5.95999 30.0229 6.0772C30.1401 6.19441 30.2991 6.26025 30.4648 6.26025Z" fill="#231F20"/>
</g>
<defs>
<clipPath id="clip0_1343_2803">
<rect width="40" height="40" fill="white" transform="translate(0.464844 0.0102539)"/>
</clipPath>
</defs>
</svg>
