<svg width="41" height="41" viewBox="0 0 41 41" fill="none" xmlns="http://www.w3.org/2000/svg">
<g clip-path="url(#clip0_1343_2883)">
<path d="M39.8395 36.001H37.9645V28.1322C39.4645 27.601 39.2145 26.1947 39.2145 24.751C39.2145 24.2537 39.017 23.7768 38.6653 23.4251C38.3137 23.0735 37.8368 22.876 37.3395 22.876H31.7145V16.751C33.1895 16.0072 32.9645 15.1447 32.9645 13.501C32.9645 13.0037 32.767 12.5268 32.4153 12.1751C32.0637 11.8235 31.5868 11.626 31.0895 11.626H22.3395V6.00096C22.3395 5.8352 22.2737 5.67623 22.1565 5.55902C22.0392 5.44181 21.8803 5.37596 21.7145 5.37596C20.9645 5.37596 21.0895 5.41346 21.0895 5.26346C21.4542 5.13452 21.7701 4.89592 21.9939 4.58038C22.2177 4.26484 22.3384 3.8878 22.3395 3.50096C22.3395 2.70096 21.3895 1.23846 20.977 0.644714C20.9194 0.562196 20.8427 0.494806 20.7535 0.448273C20.6643 0.401741 20.5651 0.377441 20.4645 0.377441C20.3639 0.377441 20.2647 0.401741 20.1755 0.448273C20.0863 0.494806 20.0096 0.562196 19.952 0.644714C19.5395 1.23846 18.5895 2.70096 18.5895 3.50096C18.5906 3.8878 18.7113 4.26484 18.9351 4.58038C19.1589 4.89592 19.4748 5.13452 19.8395 5.26346C19.8395 5.41346 19.9645 5.37596 19.2145 5.37596C19.0488 5.37596 18.8898 5.44181 18.7726 5.55902C18.6554 5.67623 18.5895 5.8352 18.5895 6.00096V11.626H9.83951C9.34223 11.626 8.86532 11.8235 8.51369 12.1751C8.16206 12.5268 7.96451 13.0037 7.96451 13.501C7.96451 14.8447 7.76451 15.9635 8.94576 16.626C9.32701 16.8322 9.21451 16.0635 9.21451 22.876H3.58951C3.09223 22.876 2.61532 23.0735 2.26369 23.4251C1.91206 23.7768 1.71451 24.2537 1.71451 24.751C1.71451 26.1822 1.44576 27.5885 2.96451 28.1322V36.001H1.08951C-0.422989 36.001 0.777011 40.376 4.21451 40.376H36.7145C40.1645 40.376 41.3458 36.001 39.8395 36.001ZM20.4645 2.15721C20.7441 2.56841 20.9552 3.02221 21.0895 3.50096C21.0895 3.66672 21.0237 3.8257 20.9065 3.94291C20.7892 4.06012 20.6303 4.12596 20.4645 4.12596C20.2988 4.12596 20.1398 4.06012 20.0226 3.94291C19.9054 3.8257 19.8395 3.66672 19.8395 3.50096C19.9751 3.02267 20.1861 2.56905 20.4645 2.15721ZM19.8395 6.62596H21.0895V11.626H19.8395V6.62596ZM9.21451 13.501C9.21451 13.3352 9.28036 13.1762 9.39757 13.059C9.51478 12.9418 9.67375 12.876 9.83951 12.876H31.0895C31.2553 12.876 31.4142 12.9418 31.5315 13.059C31.6487 13.1762 31.7145 13.3352 31.7145 13.501V14.9572C31.7145 15.701 30.277 16.001 29.5208 16.001C27.5333 16.001 27.402 14.751 24.9895 14.751C22.577 14.751 22.4583 16.001 20.4645 16.001C18.4708 16.001 18.3458 14.751 15.9333 14.751C13.5208 14.751 13.4333 16.001 11.402 16.001C10.6395 16.001 9.21451 15.701 9.21451 14.9635V13.501ZM10.4645 17.1697C13.3458 17.676 13.8458 16.001 15.927 16.001C16.6235 15.9832 17.3093 16.1747 17.8958 16.551C18.6713 17.0146 19.5579 17.2594 20.4614 17.2594C21.3649 17.2594 22.2515 17.0146 23.027 16.551C23.6129 16.1787 24.2955 15.9874 24.9895 16.001C27.1895 16.001 27.4895 17.6947 30.4645 17.1697V22.876H10.4645V17.1697ZM2.96451 24.751C2.96451 24.5852 3.03036 24.4262 3.14757 24.309C3.26478 24.1918 3.42375 24.126 3.58951 24.126H37.3395C37.5053 24.126 37.6642 24.1918 37.7815 24.309C37.8987 24.4262 37.9645 24.5852 37.9645 24.751V26.376C37.9642 26.4813 37.9373 26.5849 37.8862 26.6771C37.8351 26.7693 37.7616 26.847 37.6724 26.9032C37.5832 26.9593 37.4813 26.9919 37.3761 26.9981C37.2709 27.0043 37.1659 26.9838 37.0708 26.9385C36.327 26.5885 35.6833 26.001 34.0583 26.001C31.6458 26.001 31.5208 27.251 29.5208 27.251C27.5208 27.251 27.402 26.001 24.9895 26.001C22.577 26.001 22.4583 27.251 20.4645 27.251C18.4708 27.251 18.3458 26.001 15.9333 26.001C13.5208 26.001 13.4333 27.251 11.402 27.251C9.37076 27.251 9.27701 26.001 6.87701 26.001C5.26451 26.001 4.62701 26.576 3.86451 26.9385C3.76865 26.9854 3.66236 27.0071 3.55576 27.0013C3.44917 26.9956 3.34582 26.9626 3.25558 26.9056C3.16534 26.8486 3.09121 26.7694 3.04026 26.6756C2.9893 26.5817 2.96323 26.4765 2.96451 26.3697V24.751ZM4.21451 28.126C5.02701 27.8322 6.47076 26.4947 8.83326 27.801C9.60737 28.2685 10.4945 28.5156 11.3989 28.5156C12.3032 28.5156 13.1904 28.2685 13.9645 27.801C14.5504 27.4287 15.233 27.2374 15.927 27.251C16.6235 27.2332 17.3093 27.4247 17.8958 27.801C18.6713 28.2646 19.5579 28.5094 20.4614 28.5094C21.3649 28.5094 22.2515 28.2646 23.027 27.801C23.6129 27.4287 24.2955 27.2374 24.9895 27.251C25.686 27.2332 26.3718 27.4247 26.9583 27.801C27.7338 28.2646 28.6204 28.5094 29.5239 28.5094C30.4274 28.5094 31.314 28.2646 32.0895 27.801C34.4395 26.5072 35.9083 27.8385 36.7145 28.126V36.001H4.21451V28.126ZM36.7145 39.126H4.21451C3.66059 39.1255 3.12249 38.9412 2.68471 38.6018C2.24692 38.2624 1.93424 37.7873 1.79576 37.251H39.1333C38.9948 37.7873 38.6821 38.2624 38.2443 38.6018C37.8065 38.9412 37.2684 39.1255 36.7145 39.126Z" fill="#231F20"/>
<path d="M20.4648 30.376C20.094 30.376 19.7315 30.4859 19.4232 30.692C19.1148 30.898 18.8745 31.1908 18.7326 31.5334C18.5907 31.8761 18.5535 32.2531 18.6259 32.6168C18.6982 32.9805 18.8768 33.3146 19.139 33.5768C19.4012 33.839 19.7353 34.0176 20.099 34.0899C20.4628 34.1623 20.8398 34.1252 21.1824 33.9832C21.525 33.8413 21.8178 33.601 22.0238 33.2927C22.2299 32.9843 22.3398 32.6218 22.3398 32.251C22.3398 31.7537 22.1423 31.2768 21.7907 30.9252C21.439 30.5735 20.9621 30.376 20.4648 30.376ZM20.4648 32.876C20.2991 32.876 20.1401 32.8101 20.0229 32.6929C19.9057 32.5757 19.8398 32.4167 19.8398 32.251C19.8398 32.0852 19.9057 31.9262 20.0229 31.809C20.1401 31.6918 20.2991 31.626 20.4648 31.626C20.6306 31.626 20.7896 31.6918 20.9068 31.809C21.024 31.9262 21.0898 32.0852 21.0898 32.251C21.0898 32.4167 21.024 32.5757 20.9068 32.6929C20.7896 32.8101 20.6306 32.876 20.4648 32.876Z" fill="#231F20"/>
<path d="M14.2148 30.376C13.844 30.376 13.4815 30.4859 13.1732 30.692C12.8648 30.898 12.6245 31.1908 12.4826 31.5334C12.3407 31.8761 12.3035 32.2531 12.3759 32.6168C12.4482 32.9805 12.6268 33.3146 12.889 33.5768C13.1512 33.839 13.4853 34.0176 13.849 34.0899C14.2128 34.1623 14.5898 34.1252 14.9324 33.9832C15.275 33.8413 15.5678 33.601 15.7739 33.2927C15.9799 32.9843 16.0898 32.6218 16.0898 32.251C16.0898 31.7537 15.8923 31.2768 15.5407 30.9252C15.189 30.5735 14.7121 30.376 14.2148 30.376ZM14.2148 32.876C14.0491 32.876 13.8901 32.8101 13.7729 32.6929C13.6557 32.5757 13.5898 32.4167 13.5898 32.251C13.5898 32.0852 13.6557 31.9262 13.7729 31.809C13.8901 31.6918 14.0491 31.626 14.2148 31.626C14.3806 31.626 14.5396 31.6918 14.6568 31.809C14.774 31.9262 14.8398 32.0852 14.8398 32.251C14.8398 32.4167 14.774 32.5757 14.6568 32.6929C14.5396 32.8101 14.3806 32.876 14.2148 32.876Z" fill="#231F20"/>
<path d="M7.96484 30.376C7.594 30.376 7.23149 30.4859 6.92315 30.692C6.61481 30.898 6.37448 31.1908 6.23257 31.5334C6.09066 31.8761 6.05352 32.2531 6.12587 32.6168C6.19822 32.9805 6.3768 33.3146 6.63902 33.5768C6.90124 33.839 7.23534 34.0176 7.59905 34.0899C7.96276 34.1623 8.33976 34.1252 8.68238 33.9832C9.02499 33.8413 9.31782 33.601 9.52385 33.2927C9.72988 32.9843 9.83984 32.6218 9.83984 32.251C9.83984 31.7537 9.6423 31.2768 9.29067 30.9252C8.93904 30.5735 8.46213 30.376 7.96484 30.376ZM7.96484 32.876C7.79908 32.876 7.64011 32.8101 7.5229 32.6929C7.40569 32.5757 7.33984 32.4167 7.33984 32.251C7.33984 32.0852 7.40569 31.9262 7.5229 31.809C7.64011 31.6918 7.79908 31.626 7.96484 31.626C8.13061 31.626 8.28958 31.6918 8.40679 31.809C8.524 31.9262 8.58984 32.0852 8.58984 32.251C8.58984 32.4167 8.524 32.5757 8.40679 32.6929C8.28958 32.8101 8.13061 32.876 7.96484 32.876Z" fill="#231F20"/>
<path d="M26.7148 30.376C26.344 30.376 25.9815 30.4859 25.6732 30.692C25.3648 30.898 25.1245 31.1908 24.9826 31.5334C24.8407 31.8761 24.8035 32.2531 24.8759 32.6168C24.9482 32.9805 25.1268 33.3146 25.389 33.5768C25.6512 33.839 25.9853 34.0176 26.3491 34.0899C26.7128 34.1623 27.0898 34.1252 27.4324 33.9832C27.775 33.8413 28.0678 33.601 28.2738 33.2927C28.4799 32.9843 28.5898 32.6218 28.5898 32.251C28.5898 31.7537 28.3923 31.2768 28.0407 30.9252C27.689 30.5735 27.2121 30.376 26.7148 30.376ZM26.7148 32.876C26.5491 32.876 26.3901 32.8101 26.2729 32.6929C26.1557 32.5757 26.0898 32.4167 26.0898 32.251C26.0898 32.0852 26.1557 31.9262 26.2729 31.809C26.3901 31.6918 26.5491 31.626 26.7148 31.626C26.8806 31.626 27.0396 31.6918 27.1568 31.809C27.274 31.9262 27.3398 32.0852 27.3398 32.251C27.3398 32.4167 27.274 32.5757 27.1568 32.6929C27.0396 32.8101 26.8806 32.876 26.7148 32.876Z" fill="#231F20"/>
<path d="M20.4648 17.876C20.094 17.876 19.7315 17.9859 19.4232 18.192C19.1148 18.398 18.8745 18.6908 18.7326 19.0334C18.5907 19.3761 18.5535 19.7531 18.6259 20.1168C18.6982 20.4805 18.8768 20.8146 19.139 21.0768C19.4012 21.339 19.7353 21.5176 20.099 21.5899C20.4628 21.6623 20.8398 21.6252 21.1824 21.4832C21.525 21.3413 21.8178 21.101 22.0238 20.7927C22.2299 20.4843 22.3398 20.1218 22.3398 19.751C22.3398 19.2537 22.1423 18.7768 21.7907 18.4252C21.439 18.0735 20.9621 17.876 20.4648 17.876ZM20.4648 20.376C20.2991 20.376 20.1401 20.3101 20.0229 20.1929C19.9057 20.0757 19.8398 19.9167 19.8398 19.751C19.8398 19.5852 19.9057 19.4262 20.0229 19.309C20.1401 19.1918 20.2991 19.126 20.4648 19.126C20.6306 19.126 20.7896 19.1918 20.9068 19.309C21.024 19.4262 21.0898 19.5852 21.0898 19.751C21.0898 19.9167 21.024 20.0757 20.9068 20.1929C20.7896 20.3101 20.6306 20.376 20.4648 20.376Z" fill="#231F20"/>
<path d="M14.2148 17.876C13.844 17.876 13.4815 17.9859 13.1732 18.192C12.8648 18.398 12.6245 18.6908 12.4826 19.0334C12.3407 19.3761 12.3035 19.7531 12.3759 20.1168C12.4482 20.4805 12.6268 20.8146 12.889 21.0768C13.1512 21.339 13.4853 21.5176 13.849 21.5899C14.2128 21.6623 14.5898 21.6252 14.9324 21.4832C15.275 21.3413 15.5678 21.101 15.7739 20.7927C15.9799 20.4843 16.0898 20.1218 16.0898 19.751C16.0898 19.2537 15.8923 18.7768 15.5407 18.4252C15.189 18.0735 14.7121 17.876 14.2148 17.876ZM14.2148 20.376C14.0491 20.376 13.8901 20.3101 13.7729 20.1929C13.6557 20.0757 13.5898 19.9167 13.5898 19.751C13.5898 19.5852 13.6557 19.4262 13.7729 19.309C13.8901 19.1918 14.0491 19.126 14.2148 19.126C14.3806 19.126 14.5396 19.1918 14.6568 19.309C14.774 19.4262 14.8398 19.5852 14.8398 19.751C14.8398 19.9167 14.774 20.0757 14.6568 20.1929C14.5396 20.3101 14.3806 20.376 14.2148 20.376Z" fill="#231F20"/>
<path d="M26.7148 17.876C26.344 17.876 25.9815 17.9859 25.6732 18.192C25.3648 18.398 25.1245 18.6908 24.9826 19.0334C24.8407 19.3761 24.8035 19.7531 24.8759 20.1168C24.9482 20.4805 25.1268 20.8146 25.389 21.0768C25.6512 21.339 25.9853 21.5176 26.3491 21.5899C26.7128 21.6623 27.0898 21.6252 27.4324 21.4832C27.775 21.3413 28.0678 21.101 28.2738 20.7927C28.4799 20.4843 28.5898 20.1218 28.5898 19.751C28.5898 19.2537 28.3923 18.7768 28.0407 18.4252C27.689 18.0735 27.2121 17.876 26.7148 17.876ZM26.7148 20.376C26.5491 20.376 26.3901 20.3101 26.2729 20.1929C26.1557 20.0757 26.0898 19.9167 26.0898 19.751C26.0898 19.5852 26.1557 19.4262 26.2729 19.309C26.3901 19.1918 26.5491 19.126 26.7148 19.126C26.8806 19.126 27.0396 19.1918 27.1568 19.309C27.274 19.4262 27.3398 19.5852 27.3398 19.751C27.3398 19.9167 27.274 20.0757 27.1568 20.1929C27.0396 20.3101 26.8806 20.376 26.7148 20.376Z" fill="#231F20"/>
<path d="M32.9648 30.376C32.594 30.376 32.2315 30.4859 31.9232 30.692C31.6148 30.898 31.3745 31.1908 31.2326 31.5334C31.0907 31.8761 31.0535 32.2531 31.1259 32.6168C31.1982 32.9805 31.3768 33.3146 31.639 33.5768C31.9012 33.839 32.2353 34.0176 32.5991 34.0899C32.9628 34.1623 33.3398 34.1252 33.6824 33.9832C34.025 33.8413 34.3178 33.601 34.5238 33.2927C34.7299 32.9843 34.8398 32.6218 34.8398 32.251C34.8398 31.7537 34.6423 31.2768 34.2907 30.9252C33.939 30.5735 33.4621 30.376 32.9648 30.376ZM32.9648 32.876C32.7991 32.876 32.6401 32.8101 32.5229 32.6929C32.4057 32.5757 32.3398 32.4167 32.3398 32.251C32.3398 32.0852 32.4057 31.9262 32.5229 31.809C32.6401 31.6918 32.7991 31.626 32.9648 31.626C33.1306 31.626 33.2896 31.6918 33.4068 31.809C33.524 31.9262 33.5898 32.0852 33.5898 32.251C33.5898 32.4167 33.524 32.5757 33.4068 32.6929C33.2896 32.8101 33.1306 32.876 32.9648 32.876Z" fill="#231F20"/>
</g>
<defs>
<clipPath id="clip0_1343_2883">
<rect width="40" height="40" fill="white" transform="translate(0.464844 0.375977)"/>
</clipPath>
</defs>
</svg>
