<svg width="41" height="41" viewBox="0 0 41 41" fill="none" xmlns="http://www.w3.org/2000/svg">
<g clip-path="url(#clip0_1343_2759)">
<path d="M20.9648 28.302C22.201 28.302 23.4094 27.9355 24.4372 27.2487C25.465 26.5619 26.266 25.5858 26.7391 24.4438C27.2121 23.3017 27.3359 22.0451 27.0948 20.8327C26.8536 19.6203 26.2583 18.5067 25.3843 17.6326C24.5102 16.7585 23.3965 16.1633 22.1842 15.9221C20.9718 15.6809 19.7151 15.8047 18.5731 16.2778C17.431 16.7508 16.4549 17.5519 15.7682 18.5797C15.0814 19.6075 14.7148 20.8159 14.7148 22.052C14.7148 23.7096 15.3733 25.2993 16.5454 26.4714C17.7175 27.6435 19.3072 28.302 20.9648 28.302ZM20.9648 17.052C21.9538 17.052 22.9204 17.3453 23.7427 17.8947C24.5649 18.4441 25.2058 19.225 25.5842 20.1386C25.9627 21.0522 26.0617 22.0576 25.8688 23.0275C25.6758 23.9974 25.1996 24.8883 24.5004 25.5875C23.8011 26.2868 22.9102 26.763 21.9403 26.9559C20.9704 27.1489 19.9651 27.0498 19.0514 26.6714C18.1378 26.293 17.3569 25.6521 16.8075 24.8299C16.2581 24.0076 15.9648 23.0409 15.9648 22.052C15.9648 20.7259 16.4916 19.4542 17.4293 18.5165C18.367 17.5788 19.6388 17.052 20.9648 17.052Z" fill="#231F20"/>
<path d="M32.8399 3.92712C32.5899 3.92712 32.8399 4.39587 31.5899 0.602119C31.5464 0.472756 31.4617 0.361183 31.3489 0.284441C31.236 0.207698 31.1011 0.170006 30.9649 0.17712H10.9648C10.8338 0.176781 10.706 0.217631 10.5995 0.293896C10.4929 0.37016 10.413 0.477981 10.3711 0.602119L9.26485 3.92712C8.83998 3.90329 8.41473 3.96648 8.01515 4.11282C7.61558 4.25916 7.2501 4.48557 6.94112 4.77816C6.63214 5.07075 6.38618 5.42337 6.2183 5.81438C6.05043 6.2054 5.96418 6.62659 5.96485 7.05212V8.30212C5.96485 8.46788 6.0307 8.62685 6.14791 8.74406C6.26512 8.86127 6.42409 8.92712 6.58985 8.92712H7.2711L7.71485 13.3021C7.55113 13.318 7.40027 13.3977 7.29497 13.5241C7.18967 13.6505 7.13842 13.8132 7.15235 13.9771L8.77735 30.2271C8.79289 30.3818 8.86554 30.5252 8.98111 30.6292C9.09668 30.7332 9.24687 30.7904 9.40235 30.7896C9.48985 30.7896 9.36485 29.8521 10.3398 39.6021C10.3554 39.7568 10.428 39.9002 10.5436 40.0042C10.6592 40.1082 10.8094 40.1654 10.9648 40.1646H30.9649C31.1203 40.1654 31.2705 40.1082 31.3861 40.0042C31.5017 39.9002 31.5743 39.7568 31.5899 39.6021L32.4711 30.8021C32.636 30.8178 32.8004 30.7673 32.9281 30.6619C33.0559 30.5564 33.1365 30.4045 33.1524 30.2396C34.9211 12.5396 34.8836 13.8021 34.6149 13.5084C34.0899 12.9521 34.0899 14.5521 34.6586 8.92712H35.3399C35.5056 8.92712 35.6646 8.86127 35.7818 8.74406C35.899 8.62685 35.9649 8.46788 35.9649 8.30212V7.05212C35.9649 6.22332 35.6356 5.42846 35.0496 4.84241C34.4635 4.25636 33.6687 3.92712 32.8399 3.92712ZM11.4148 1.42712H30.5149L31.3461 3.92712H10.5836L11.4148 1.42712ZM30.4023 38.9271H11.5273L10.7211 30.8021H31.2086L30.4023 38.9271ZM31.9648 29.5521H9.96485L8.46485 14.5521H33.4649L31.9648 29.5521ZM32.9649 13.3021H8.96485L8.52735 8.92712H33.4024L32.9649 13.3021ZM34.7149 7.67712H7.21485V7.05212C7.21485 6.55484 7.41239 6.07792 7.76402 5.72629C8.11565 5.37466 8.59257 5.17712 9.08985 5.17712H32.8399C33.3371 5.17712 33.814 5.37466 34.1657 5.72629C34.5173 6.07792 34.7149 6.55484 34.7149 7.05212V7.67712Z" fill="#231F20"/>
</g>
<defs>
<clipPath id="clip0_1343_2759">
<rect width="40" height="40" fill="white" transform="translate(0.964844 0.177002)"/>
</clipPath>
</defs>
</svg>
