<svg width="25" height="25" viewBox="0 0 25 25" fill="none" xmlns="http://www.w3.org/2000/svg">
<path d="M5.46484 21.0769C4.91484 21.0769 4.44401 20.8811 4.05234 20.4894C3.66068 20.0977 3.46484 19.6269 3.46484 19.0769V5.0769C3.46484 4.5269 3.66068 4.05607 4.05234 3.6644C4.44401 3.27274 4.91484 3.0769 5.46484 3.0769H19.4648C20.0148 3.0769 20.4857 3.27274 20.8773 3.6644C21.269 4.05607 21.4648 4.5269 21.4648 5.0769V19.0769C21.4648 19.6269 21.269 20.0977 20.8773 20.4894C20.4857 20.8811 20.0148 21.0769 19.4648 21.0769H5.46484ZM10.4648 19.0769V13.0769H5.46484V19.0769H10.4648ZM12.4648 19.0769H19.4648V13.0769H12.4648V19.0769ZM5.46484 11.0769H19.4648V5.0769H5.46484V11.0769Z" fill="#888E9C"/>
</svg>
