<svg width="41" height="41" viewBox="0 0 41 41" fill="none" xmlns="http://www.w3.org/2000/svg">
<g clip-path="url(#clip0_1343_2776)">
<path d="M39.5082 30.8728C38.1207 29.4853 36.8895 31.204 34.4145 31.204C32.6395 31.204 32.677 30.2603 30.5582 29.204C28.4395 28.1478 23.3645 27.1353 19.3582 23.1228C17.9948 21.653 16.9236 19.937 16.202 18.0665C17.8457 17.529 21.7707 19.379 24.4645 20.654C26.402 21.5728 29.3332 23.204 29.8395 21.704C30.6957 19.1415 25.5582 13.8353 24.5207 12.7978C21.0707 9.34155 18.5395 11.6978 15.1457 15.1165C14.3383 12.4447 13.7427 9.71328 13.3645 6.9478C12.9957 4.56655 11.7145 1.70405 9.67697 1.0228C5.83947 -0.227202 -0.416775 9.10405 4.80198 23.5228C4.3439 23.8886 3.90577 24.2788 3.48948 24.6915C1.46448 26.704 -1.60428 29.7665 2.45822 33.8228C3.93176 35.1246 5.50304 36.3115 7.15822 37.3728C10.002 39.329 9.95197 39.4415 10.5645 39.4415C10.8416 39.4413 11.1127 39.3602 11.3444 39.2083C11.5762 39.0564 11.7586 38.8401 11.8694 38.5861C11.9802 38.3321 12.0144 38.0513 11.9681 37.778C11.9217 37.5048 11.7966 37.251 11.6082 37.0478C10.0237 35.3693 8.99376 33.2441 8.65822 30.9603C12.3395 36.1603 17.6645 40.0103 24.0707 40.0103C28.1875 39.9155 32.1585 38.4681 35.3707 35.8915C36.1145 35.1478 38.2332 36.129 39.5082 34.854C40.7832 33.579 40.7895 32.154 39.5082 30.8728ZM23.6395 13.6728C27.0645 17.0978 28.727 19.9228 28.6957 21.0665C25.977 20.6228 17.5332 14.4415 14.5832 17.729C14.9085 17.193 15.2966 16.6979 15.7395 16.254C19.6332 12.3603 21.0895 11.1415 23.6395 13.6728ZM7.47072 2.8228C9.63947 0.660298 11.677 4.20405 12.0957 7.11655C12.5138 10.1893 13.1998 13.2196 14.1457 16.1728C12.738 17.9775 12.09 20.2602 12.3395 22.5353C10.6957 21.4915 8.53323 21.104 5.88947 22.7478C3.67697 16.5103 2.78322 7.5103 7.47072 2.8228ZM10.6895 38.1415C10.5332 38.2978 10.6207 38.2415 7.87072 36.3415C6.2809 35.3227 4.76656 34.1906 3.33947 32.954C0.164475 29.7665 2.30198 27.6228 4.37072 25.554C6.09573 23.8353 8.31447 22.3603 10.6207 23.1165C7.09572 24.6603 5.33947 31.9728 10.6707 37.8853C10.7059 37.9176 10.7274 37.9621 10.7309 38.0097C10.7344 38.0573 10.7196 38.1045 10.6895 38.1415ZM38.6207 33.9728C37.877 34.7103 35.7395 33.754 34.5207 34.979C34.1707 35.279 25.9395 42.3415 16.1395 36.4603C13.0472 34.5004 10.4742 31.8223 8.63947 28.654C9.08322 24.7665 11.5582 23.4103 12.7332 24.4603C13.6262 25.9771 14.6985 27.381 15.927 28.6415C16.0434 28.7483 16.196 28.807 16.354 28.8058C16.512 28.8046 16.6637 28.7436 16.7785 28.6351C16.8934 28.5266 16.9629 28.3786 16.973 28.221C16.9832 28.0633 16.9332 27.9076 16.8332 27.7853C15.6918 26.6043 14.6875 25.2981 13.8395 23.8915C13.6993 22.129 14.1863 20.3737 15.2145 18.9353C19.4957 28.679 27.9645 28.4353 31.5832 31.379C31.9575 31.7409 32.4016 32.0228 32.8883 32.2077C33.3751 32.3925 33.8943 32.4763 34.4145 32.454C36.9145 32.454 38.0395 31.1728 38.6207 31.754C39.4082 32.5415 39.4082 33.1853 38.6207 33.9728Z" fill="#231F20"/>
<path d="M31.8329 33.7916C27.8954 33.8797 24.0076 32.8991 20.5829 30.9541C20.4434 30.8967 20.2879 30.8916 20.145 30.9398C20.002 30.988 19.8814 31.0863 19.8052 31.2165C19.7291 31.3467 19.7026 31.5001 19.7306 31.6483C19.7587 31.7965 19.8394 31.9295 19.9579 32.0229C23.5712 34.0826 27.6746 35.1258 31.8329 35.0416C31.9987 35.0416 32.1576 34.9758 32.2749 34.8586C32.3921 34.7414 32.4579 34.5824 32.4579 34.4166C32.4579 34.2509 32.3921 34.0919 32.2749 33.9747C32.1576 33.8575 31.9987 33.7916 31.8329 33.7916Z" fill="#231F20"/>
</g>
<defs>
<clipPath id="clip0_1343_2776">
<rect width="40" height="40" fill="white" transform="translate(0.464844 0.454102)"/>
</clipPath>
</defs>
</svg>
