<svg width="41" height="29" viewBox="0 0 41 29" fill="none" xmlns="http://www.w3.org/2000/svg">
<path d="M30.4648 9.552V4.552C30.4648 -0.447998 10.4648 -0.447998 10.4648 4.552V9.552C5.46484 9.602 0.464844 10.8833 0.464844 13.302V24.552C0.464844 28.9958 16.9648 29.552 20.4648 25.9208C23.9836 29.552 40.4648 28.9708 40.4648 24.552V13.302C40.4648 10.8895 35.4648 9.60825 30.4648 9.552ZM39.2148 13.302C39.2148 14.3208 35.6836 15.802 30.1523 15.802C24.6211 15.802 21.0898 14.3208 21.0898 13.302C21.0898 12.2833 24.3523 10.9208 29.5211 10.802C27.8648 10.852 24.2148 11.1333 24.2148 12.677C24.2148 14.4645 29.1586 14.552 30.1523 14.552C31.1461 14.552 36.0898 14.4645 36.0898 12.677C36.0898 11.1458 32.4398 10.8645 30.7836 10.802C35.9523 10.9208 39.2148 12.3208 39.2148 13.302ZM15.2586 12.677C13.4398 13.5083 8.11484 13.5083 6.29609 12.677C8.11484 11.8458 13.4398 11.8458 15.2586 12.677ZM34.6336 12.677C32.8148 13.5083 27.4898 13.5083 25.6711 12.677C27.4898 11.8458 32.8148 11.8458 34.6336 12.677ZM20.4648 11.9333C19.0586 10.4895 15.4648 9.68325 11.7148 9.5645V6.4395C15.3523 8.8895 25.5773 8.8895 29.2148 6.4395V9.5645C25.4648 9.68325 21.8711 10.4895 20.4648 11.9333ZM24.7961 3.927C23.0648 4.75825 17.8773 4.7645 16.1336 3.927C17.8648 3.09575 23.0523 3.0895 24.7961 3.927ZM19.8398 2.052C18.2273 2.102 14.6898 2.38325 14.6898 3.927C14.6898 5.7145 19.4961 5.802 20.4586 5.802C21.4211 5.802 26.2273 5.7145 26.2273 3.927C26.2273 2.39575 22.6898 2.1145 21.0773 2.052C26.0773 2.15825 29.2023 3.55825 29.2023 4.552C29.2023 5.54575 25.7961 7.052 20.4523 7.052C15.1086 7.052 11.7023 5.57075 11.7023 4.552C11.7023 3.53325 14.8398 2.17075 19.8398 2.052ZM10.1461 10.802C8.48984 10.8645 4.83984 11.1458 4.83984 12.677C4.83984 14.4645 9.78359 14.552 10.7773 14.552C11.7711 14.552 16.7148 14.4645 16.7148 12.677C16.7148 11.1458 13.0648 10.8645 11.4086 10.802C16.5773 10.9208 19.8398 12.3208 19.8398 13.302C19.8398 14.2833 16.3086 15.802 10.7773 15.802C5.24609 15.802 1.71484 14.3208 1.71484 13.302C1.71484 12.2833 4.97734 10.9208 10.1461 10.802ZM10.7711 27.052C5.24609 27.052 1.71484 25.5708 1.71484 24.552V15.177C5.46484 17.677 16.0898 17.677 19.8398 15.177V24.552C19.8398 25.5708 16.3086 27.052 10.7773 27.052H10.7711ZM30.1461 27.052C24.6211 27.052 21.0898 25.5708 21.0898 24.552V15.177C24.8398 17.677 35.4648 17.677 39.2148 15.177V24.552C39.2148 25.5708 35.6836 27.052 30.1523 27.052H30.1461Z" fill="white"/>
<path d="M6.08984 24.552C5.92408 24.552 5.76511 24.6178 5.6479 24.7351C5.53069 24.8523 5.46484 25.0112 5.46484 25.177C5.46484 25.3428 5.53069 25.5017 5.6479 25.6189C5.76511 25.7362 5.92408 25.802 6.08984 25.802C6.2556 25.802 6.41458 25.7362 6.53179 25.6189C6.649 25.5017 6.71484 25.3428 6.71484 25.177C6.71484 25.0112 6.649 24.8523 6.53179 24.7351C6.41458 24.6178 6.2556 24.552 6.08984 24.552Z" fill="white"/>
<path d="M3.58984 22.677C3.42408 22.677 3.26511 22.7428 3.1479 22.8601C3.03069 22.9773 2.96484 23.1362 2.96484 23.302C2.96484 23.4678 3.03069 23.6267 3.1479 23.7439C3.26511 23.8612 3.42408 23.927 3.58984 23.927C3.7556 23.927 3.91458 23.8612 4.03179 23.7439C4.149 23.6267 4.21484 23.4678 4.21484 23.302C4.21484 23.1362 4.149 22.9773 4.03179 22.8601C3.91458 22.7428 3.7556 22.677 3.58984 22.677Z" fill="white"/>
<path d="M6.71484 21.427C6.54908 21.427 6.39011 21.4928 6.2729 21.6101C6.15569 21.7273 6.08984 21.8862 6.08984 22.052C6.08984 22.2178 6.15569 22.3767 6.2729 22.4939C6.39011 22.6112 6.54908 22.677 6.71484 22.677C6.8806 22.677 7.03958 22.6112 7.15679 22.4939C7.274 22.3767 7.33984 22.2178 7.33984 22.052C7.33984 21.8862 7.274 21.7273 7.15679 21.6101C7.03958 21.4928 6.8806 21.427 6.71484 21.427Z" fill="white"/>
<path d="M25.4648 23.927C25.2991 23.927 25.1401 23.9928 25.0229 24.1101C24.9057 24.2273 24.8398 24.3862 24.8398 24.552C24.8398 24.7178 24.9057 24.8767 25.0229 24.9939C25.1401 25.1112 25.2991 25.177 25.4648 25.177C25.6306 25.177 25.7896 25.1112 25.9068 24.9939C26.024 24.8767 26.0898 24.7178 26.0898 24.552C26.0898 24.3862 26.024 24.2273 25.9068 24.1101C25.7896 23.9928 25.6306 23.927 25.4648 23.927Z" fill="white"/>
<path d="M22.9648 22.052C22.7991 22.052 22.6401 22.1178 22.5229 22.2351C22.4057 22.3523 22.3398 22.5112 22.3398 22.677C22.3398 22.8428 22.4057 23.0017 22.5229 23.1189C22.6401 23.2362 22.7991 23.302 22.9648 23.302C23.1306 23.302 23.2896 23.2362 23.4068 23.1189C23.524 23.0017 23.5898 22.8428 23.5898 22.677C23.5898 22.5112 23.524 22.3523 23.4068 22.2351C23.2896 22.1178 23.1306 22.052 22.9648 22.052Z" fill="white"/>
<path d="M26.0898 20.802C25.9241 20.802 25.7651 20.8678 25.6479 20.9851C25.5307 21.1023 25.4648 21.2612 25.4648 21.427C25.4648 21.5928 25.5307 21.7517 25.6479 21.8689C25.7651 21.9862 25.9241 22.052 26.0898 22.052C26.2556 22.052 26.4146 21.9862 26.5318 21.8689C26.649 21.7517 26.7148 21.5928 26.7148 21.427C26.7148 21.2612 26.649 21.1023 26.5318 20.9851C26.4146 20.8678 26.2556 20.802 26.0898 20.802Z" fill="white"/>
</svg>
