<svg width="25" height="25" viewBox="0 0 25 25" fill="none" xmlns="http://www.w3.org/2000/svg">
<path d="M4.88984 10.0769C5.12318 9.4769 5.16068 8.94357 5.00234 8.4769C4.84401 8.01024 4.57318 7.54357 4.18984 7.0769C3.63984 6.41024 3.27734 5.78107 3.10234 5.1894C2.92734 4.59774 2.89818 3.89357 3.01484 3.0769H4.96484C4.83151 3.71024 4.81068 4.2269 4.90234 4.6269C4.99401 5.0269 5.23151 5.46024 5.61484 5.9269C6.24818 6.69357 6.65234 7.37274 6.82734 7.9644C7.00234 8.55607 7.00651 9.26024 6.83984 10.0769H4.88984ZM8.88984 10.0769C9.12318 9.4769 9.16484 8.94357 9.01484 8.4769C8.86484 8.01024 8.59818 7.54357 8.21484 7.0769C7.66484 6.41024 7.29818 5.78107 7.11484 5.1894C6.93151 4.59774 6.89818 3.89357 7.01484 3.0769H8.96484C8.83151 3.71024 8.81068 4.2269 8.90234 4.6269C8.99401 5.0269 9.23151 5.46024 9.61484 5.9269C10.2482 6.69357 10.6523 7.37274 10.8273 7.9644C11.0023 8.55607 11.0065 9.26024 10.8398 10.0769H8.88984ZM12.8898 10.0769C13.1232 9.4769 13.1648 8.94357 13.0148 8.4769C12.8648 8.01024 12.5982 7.54357 12.2148 7.0769C11.6648 6.41024 11.2982 5.78107 11.1148 5.1894C10.9315 4.59774 10.8982 3.89357 11.0148 3.0769H12.9648C12.8315 3.71024 12.8107 4.2269 12.9023 4.6269C12.994 5.0269 13.2315 5.46024 13.6148 5.9269C14.2482 6.69357 14.6523 7.37274 14.8273 7.9644C15.0023 8.55607 15.0065 9.26024 14.8398 10.0769H12.8898ZM5.46484 20.0769C4.63151 20.0769 3.92318 19.7852 3.33984 19.2019C2.75651 18.6186 2.46484 17.9102 2.46484 17.0769V12.0769H16.4898C16.5732 11.5102 16.7982 11.0144 17.1648 10.5894C17.5315 10.1644 17.9815 9.86024 18.5148 9.6769L23.1398 8.1269L23.7648 10.0269L19.1398 11.5769C18.9398 11.6436 18.7773 11.7644 18.6523 11.9394C18.5273 12.1144 18.4648 12.3102 18.4648 12.5269V17.0769C18.4648 17.9102 18.1732 18.6186 17.5898 19.2019C17.0065 19.7852 16.2982 20.0769 15.4648 20.0769H5.46484ZM5.46484 18.0769H15.4648C15.7482 18.0769 15.9857 17.9811 16.1773 17.7894C16.369 17.5977 16.4648 17.3602 16.4648 17.0769V14.0769H4.46484V17.0769C4.46484 17.3602 4.56068 17.5977 4.75234 17.7894C4.94401 17.9811 5.18151 18.0769 5.46484 18.0769Z" fill="#888E9C"/>
</svg>
