<svg width="25" height="25" viewBox="0 0 25 25" fill="none" xmlns="http://www.w3.org/2000/svg">
<path d="M16.4648 14.0769C15.6315 14.0769 14.9232 13.7852 14.3398 13.2019C13.7565 12.6186 13.4648 11.9102 13.4648 11.0769C13.4648 10.2436 13.7565 9.53524 14.3398 8.9519C14.9232 8.36857 15.6315 8.0769 16.4648 8.0769C17.2982 8.0769 18.0065 8.36857 18.5898 8.9519C19.1732 9.53524 19.4648 10.2436 19.4648 11.0769C19.4648 11.9102 19.1732 12.6186 18.5898 13.2019C18.0065 13.7852 17.2982 14.0769 16.4648 14.0769ZM10.4648 20.0769V18.1769C10.4648 17.8269 10.5482 17.4936 10.7148 17.1769C10.8815 16.8602 11.1148 16.6102 11.4148 16.4269C12.1648 15.9769 12.9607 15.6394 13.8023 15.4144C14.644 15.1894 15.5315 15.0769 16.4648 15.0769C17.3982 15.0769 18.2857 15.1894 19.1273 15.4144C19.969 15.6394 20.7648 15.9769 21.5148 16.4269C21.8148 16.6102 22.0482 16.8602 22.2148 17.1769C22.3815 17.4936 22.4648 17.8269 22.4648 18.1769V20.0769H10.4648ZM12.6148 18.0769H20.3148C19.7315 17.7436 19.1148 17.4936 18.4648 17.3269C17.8148 17.1602 17.1482 17.0769 16.4648 17.0769C15.7815 17.0769 15.1148 17.1602 14.4648 17.3269C13.8148 17.4936 13.1982 17.7436 12.6148 18.0769ZM16.4648 12.0769C16.7482 12.0769 16.9857 11.9811 17.1773 11.7894C17.369 11.5977 17.4648 11.3602 17.4648 11.0769C17.4648 10.7936 17.369 10.5561 17.1773 10.3644C16.9857 10.1727 16.7482 10.0769 16.4648 10.0769C16.1815 10.0769 15.944 10.1727 15.7523 10.3644C15.5607 10.5561 15.4648 10.7936 15.4648 11.0769C15.4648 11.3602 15.5607 11.5977 15.7523 11.7894C15.944 11.9811 16.1815 12.0769 16.4648 12.0769ZM3.46484 14.0769V12.0769H11.4648V14.0769H3.46484ZM3.46484 6.0769V4.0769H15.4648V6.0769H3.46484ZM11.5648 10.0769H3.46484V8.0769H12.4648C12.2315 8.36024 12.044 8.66857 11.9023 9.0019C11.7607 9.33524 11.6482 9.69357 11.5648 10.0769Z" fill="#888E9C"/>
</svg>
