<svg width="41" height="41" viewBox="0 0 41 41" fill="none" xmlns="http://www.w3.org/2000/svg">
<g clip-path="url(#clip0_1343_2852)">
<path d="M32.2589 0.753952C32.0451 0.609982 31.8038 0.511659 31.5503 0.465125C31.2967 0.418591 31.0363 0.424846 30.7852 0.4835C30.5342 0.542154 30.2979 0.651946 30.0913 0.806017C29.8846 0.960088 29.7119 1.15513 29.5839 1.37895L27.9652 4.19145C26.8652 2.94145 18.8964 -0.0460479 11.0902 3.7477C10.8666 3.8586 10.6674 4.01302 10.5043 4.20191C10.3411 4.3908 10.2174 4.61035 10.1402 4.8477C9.89493 4.79659 9.64192 4.79514 9.39609 4.84345C9.15027 4.89175 8.91661 4.98883 8.70894 5.12895C6.37337 6.71434 4.42844 8.80955 3.02094 11.2564C1.61344 13.7033 0.780141 16.438 0.583937 19.254C0.557304 19.4996 0.579484 19.7481 0.649202 19.9851C0.718921 20.2222 0.834803 20.4431 0.990187 20.6352C0.822627 20.8219 0.694248 21.0404 0.612657 21.2777C0.531066 21.5149 0.497922 21.7662 0.515187 22.0165C0.714964 24.8351 1.55306 27.5715 2.96609 30.0186C4.37911 32.4657 6.33008 34.5594 8.67144 36.1415C8.87831 36.2832 9.11217 36.3807 9.35842 36.428C9.60467 36.4753 9.85803 36.4714 10.1027 36.4165C10.1806 36.6527 10.3047 36.871 10.4678 37.0588C10.6309 37.2466 10.8297 37.4 11.0527 37.5102C13.5985 38.7382 16.3886 39.376 19.2152 39.376C22.0417 39.376 24.8319 38.7382 27.3777 37.5102C27.6019 37.3986 27.8015 37.2432 27.9646 37.0532C28.1278 36.8632 28.2512 36.6424 28.3277 36.404C28.5723 36.4589 28.8257 36.4628 29.072 36.4155C29.3182 36.3682 29.5521 36.2707 29.7589 36.129C32.1003 34.5469 34.0513 32.4532 35.4643 30.0061C36.8773 27.559 37.7154 24.8226 37.9152 22.004C37.9282 21.7544 37.8913 21.5048 37.8065 21.2697C37.7217 21.0347 37.5908 20.8189 37.4214 20.6352C36.6652 19.829 37.3027 20.0102 20.2964 20.0102L22.1027 16.8852H38.5402C38.7979 16.8858 39.0529 16.8333 39.2894 16.731C39.5259 16.6287 39.7387 16.4787 39.9147 16.2905C40.0906 16.1022 40.2259 15.8797 40.312 15.6369C40.3981 15.394 40.4332 15.136 40.4152 14.879C40.2154 12.0603 39.3773 9.32392 37.9643 6.87684C36.5513 4.42975 34.6003 2.33601 32.2589 0.753952ZM25.8527 33.3852C23.8038 34.4553 21.5266 35.0141 19.2152 35.0141C16.9037 35.0141 14.6265 34.4553 12.5777 33.3852L19.2152 21.8852L25.8527 33.3852ZM19.2152 19.3852L12.5777 7.89145C14.6229 6.82406 16.8957 6.26664 19.2027 6.26664C21.5097 6.26664 23.7825 6.82406 25.8277 7.89145C19.2152 19.3852 21.5214 15.3915 19.2152 19.3852ZM18.1339 20.0102H4.84019C4.9435 17.7003 5.60249 15.4494 6.76126 13.4485C7.92002 11.4476 9.54436 9.75571 11.4964 8.51645L18.1339 20.0102ZM18.1339 21.2602L11.4964 32.754C9.54436 31.5147 7.92002 29.8228 6.76126 27.8219C5.60249 25.821 4.9435 23.5701 4.84019 21.2602H18.1339ZM11.2589 5.24145C11.2839 5.16232 11.3244 5.08896 11.3781 5.02565C11.4318 4.96233 11.4975 4.91034 11.5714 4.8727C13.9481 3.72791 16.5522 3.13342 19.1902 3.13342C21.8282 3.13342 24.4323 3.72791 26.8089 4.8727C26.8829 4.91034 26.9486 4.96233 27.0023 5.02565C27.0559 5.08896 27.0964 5.16232 27.1214 5.24145C27.2152 5.5602 27.0652 5.69145 26.4277 6.7977C24.192 5.62183 21.7038 5.00741 19.1777 5.00741C16.6516 5.00741 14.1634 5.62183 11.9277 6.7977C11.3964 5.84145 11.1714 5.6352 11.2839 5.24145H11.2589ZM9.38394 6.1602C9.51913 6.0735 9.68251 6.04216 9.84019 6.0727C10.1964 6.15395 10.2339 6.35395 10.8589 7.4352C8.7198 8.78616 6.94071 10.6364 5.67459 12.8268C4.40846 15.0172 3.69317 17.4823 3.59019 20.0102H2.39019C2.30486 20.0104 2.2204 19.993 2.14202 19.9593C2.06364 19.9256 1.993 19.8762 1.93444 19.8141C1.87589 19.752 1.83066 19.6786 1.80155 19.5984C1.77244 19.5182 1.76007 19.4329 1.76519 19.3477C1.95321 16.7167 2.73606 14.1628 4.05472 11.8784C5.37338 9.59404 7.19344 7.63883 9.37769 6.1602H9.38394ZM9.38394 35.1102C7.19673 33.6336 5.37377 31.6791 4.05282 29.3945C2.73186 27.1099 1.94748 24.555 1.75894 21.9227C1.75429 21.8382 1.76685 21.7536 1.79585 21.6741C1.82486 21.5946 1.86971 21.5219 1.92769 21.4602C2.17144 21.1977 2.34019 21.2602 3.59019 21.2602C3.69453 23.7893 4.41172 26.2551 5.68008 28.4456C6.94844 30.6361 8.72998 32.4857 10.8714 33.8352C10.2027 35.0102 10.1902 35.1227 9.84019 35.1977C9.68051 35.2299 9.51456 35.1985 9.37769 35.1102H9.38394ZM27.1527 36.029C27.1277 36.1081 27.0872 36.1814 27.0335 36.2448C26.9799 36.3081 26.9142 36.3601 26.8402 36.3977C24.4635 37.5425 21.8594 38.137 19.2214 38.137C16.5834 38.137 13.9793 37.5425 11.6027 36.3977C11.5287 36.3601 11.463 36.3081 11.4093 36.2448C11.3557 36.1814 11.3152 36.1081 11.2902 36.029C11.1839 35.679 11.3339 35.5477 11.9589 34.4665C14.1991 35.6424 16.6914 36.2568 19.2214 36.2568C21.7515 36.2568 24.2438 35.6424 26.4839 34.4665C27.0339 35.429 27.2589 35.6352 27.1464 36.029H27.1527ZM36.5277 21.4602C36.5857 21.5219 36.6305 21.5946 36.6595 21.6741C36.6885 21.7536 36.7011 21.8382 36.6964 21.9227C36.5086 24.5544 35.7252 27.109 34.4053 29.3936C33.0855 31.6782 31.2637 33.6329 29.0777 35.1102C29.0065 35.1563 28.9267 35.1874 28.8431 35.2017C28.7595 35.216 28.6739 35.2131 28.5914 35.1932C28.509 35.1733 28.4315 35.1369 28.3635 35.0861C28.2956 35.0353 28.2388 34.9712 28.1964 34.8977L27.5714 33.8352C29.7106 32.4842 31.4897 30.634 32.7558 28.4436C34.0219 26.2532 34.7372 23.7881 34.8402 21.2602C36.0902 21.2602 36.2589 21.1977 36.5027 21.4602H36.5277ZM26.9339 32.754L20.2964 21.2602H33.5902C33.4869 23.5701 32.8279 25.821 31.6691 27.8219C30.5104 29.8228 28.886 31.5147 26.9339 32.754ZM22.8214 15.6352C23.3589 14.7102 28.9027 5.0602 29.4339 4.14145C31.3831 5.38382 33.0052 7.07641 34.1636 9.07666C35.322 11.0769 35.9827 13.3262 36.0902 15.6352H22.8214ZM39.0027 15.4352C38.7527 15.6977 38.5714 15.6352 37.3214 15.6352C37.2158 13.1079 36.4994 10.6438 35.2335 8.45378C33.9677 6.2638 32.19 4.41314 30.0527 3.0602L30.6777 1.9977C30.72 1.92423 30.7769 1.86014 30.8448 1.80934C30.9127 1.75854 30.9902 1.72209 31.0727 1.70221C31.1551 1.68233 31.2407 1.67943 31.3243 1.6937C31.4079 1.70797 31.4878 1.7391 31.5589 1.7852C33.745 3.26249 35.5667 5.21725 36.8866 7.50181C38.2064 9.78637 38.9899 12.341 39.1777 14.9727C39.1815 15.0576 39.168 15.1425 39.1379 15.222C39.1078 15.3015 39.0618 15.3741 39.0027 15.4352Z" fill="#231F20"/>
<path d="M29.5273 10.0103C29.0947 10.0103 28.6718 10.1385 28.312 10.3789C27.9523 10.6193 27.6719 10.9609 27.5064 11.3606C27.3408 11.7603 27.2975 12.2002 27.3819 12.6245C27.4663 13.0488 27.6746 13.4386 27.9805 13.7446C28.2865 14.0505 28.6763 14.2588 29.1006 14.3432C29.5249 14.4276 29.9648 14.3843 30.3645 14.2187C30.7642 14.0532 31.1058 13.7728 31.3462 13.4131C31.5865 13.0533 31.7148 12.6304 31.7148 12.1978C31.7148 11.6176 31.4844 11.0612 31.0741 10.651C30.6639 10.2407 30.1075 10.0103 29.5273 10.0103ZM29.5273 13.1353C29.2787 13.1353 29.0402 13.0365 28.8644 12.8607C28.6886 12.6849 28.5898 12.4464 28.5898 12.1978C28.5898 11.9491 28.6886 11.7107 28.8644 11.5348C29.0402 11.359 29.2787 11.2603 29.5273 11.2603C29.776 11.2603 30.0144 11.359 30.1903 11.5348C30.3661 11.7107 30.4648 11.9491 30.4648 12.1978C30.4648 12.4464 30.3661 12.6849 30.1903 12.8607C30.0144 13.0365 29.776 13.1353 29.5273 13.1353Z" fill="#231F20"/>
<path d="M17.3398 11.5728C17.3398 12.0054 17.4681 12.4283 17.7085 12.7881C17.9489 13.1478 18.2905 13.4282 18.6902 13.5937C19.0899 13.7593 19.5298 13.8026 19.9541 13.7182C20.3784 13.6338 20.7682 13.4255 21.0741 13.1196C21.3801 12.8136 21.5884 12.4238 21.6728 11.9995C21.7572 11.5752 21.7139 11.1353 21.5483 10.7356C21.3828 10.3359 21.1024 9.99428 20.7427 9.75391C20.3829 9.51355 19.96 9.38525 19.5273 9.38525C18.9472 9.38525 18.3908 9.61572 17.9805 10.026C17.5703 10.4362 17.3398 10.9926 17.3398 11.5728ZM19.5273 10.6353C19.776 10.6353 20.0144 10.734 20.1903 10.9098C20.3661 11.0857 20.4648 11.3241 20.4648 11.5728C20.4648 11.8214 20.3661 12.0599 20.1903 12.2357C20.0144 12.4115 19.776 12.5103 19.5273 12.5103C19.2787 12.5103 19.0402 12.4115 18.8644 12.2357C18.6886 12.0599 18.5898 11.8214 18.5898 11.5728C18.5898 11.3241 18.6886 11.0857 18.8644 10.9098C19.0402 10.734 19.2787 10.6353 19.5273 10.6353Z" fill="#231F20"/>
<path d="M28.2773 25.0103C27.8447 25.0103 27.4218 25.1385 27.062 25.3789C26.7023 25.6193 26.4219 25.9609 26.2564 26.3606C26.0908 26.7603 26.0475 27.2002 26.1319 27.6245C26.2163 28.0488 26.4246 28.4386 26.7305 28.7445C27.0365 29.0505 27.4263 29.2588 27.8506 29.3432C28.2749 29.4276 28.7148 29.3843 29.1145 29.2187C29.5142 29.0532 29.8558 28.7728 30.0962 28.4131C30.3365 28.0533 30.4648 27.6304 30.4648 27.1978C30.4648 26.6176 30.2344 26.0612 29.8241 25.651C29.4139 25.2407 28.8575 25.0103 28.2773 25.0103ZM28.2773 28.1353C28.0287 28.1353 27.7902 28.0365 27.6144 27.8607C27.4386 27.6849 27.3398 27.4464 27.3398 27.1978C27.3398 26.9491 27.4386 26.7107 27.6144 26.5348C27.7902 26.359 28.0287 26.2603 28.2773 26.2603C28.526 26.2603 28.7644 26.359 28.9403 26.5348C29.1161 26.7107 29.2148 26.9491 29.2148 27.1978C29.2148 27.4464 29.1161 27.6849 28.9403 27.8607C28.7644 28.0365 28.526 28.1353 28.2773 28.1353Z" fill="#231F20"/>
<path d="M18.9023 26.8853C18.4697 26.8853 18.0468 27.0135 17.687 27.2539C17.3273 27.4943 17.0469 27.8359 16.8814 28.2356C16.7158 28.6353 16.6725 29.0752 16.7569 29.4995C16.8413 29.9238 17.0496 30.3136 17.3555 30.6195C17.6615 30.9255 18.0513 31.1338 18.4756 31.2182C18.8999 31.3026 19.3398 31.2593 19.7395 31.0937C20.1392 30.9282 20.4808 30.6478 20.7212 30.2881C20.9616 29.9283 21.0898 29.5054 21.0898 29.0728C21.0898 28.4926 20.8594 27.9362 20.4491 27.526C20.0389 27.1157 19.4825 26.8853 18.9023 26.8853ZM18.9023 30.0103C18.6537 30.0103 18.4152 29.9115 18.2394 29.7357C18.0636 29.5599 17.9648 29.3214 17.9648 29.0728C17.9648 28.8241 18.0636 28.5857 18.2394 28.4098C18.4152 28.234 18.6537 28.1353 18.9023 28.1353C19.151 28.1353 19.3894 28.234 19.5653 28.4098C19.7411 28.5857 19.8398 28.8241 19.8398 29.0728C19.8398 29.3214 19.7411 29.5599 19.5653 29.7357C19.3894 29.9115 19.151 30.0103 18.9023 30.0103Z" fill="#231F20"/>
<path d="M10.7773 28.1353C11.21 28.1353 11.6329 28.007 11.9927 27.7666C12.3524 27.5262 12.6328 27.1846 12.7983 26.7849C12.9639 26.3852 13.0072 25.9453 12.9228 25.521C12.8384 25.0967 12.6301 24.7069 12.3241 24.401C12.0182 24.095 11.6284 23.8867 11.2041 23.8023C10.7798 23.7179 10.3399 23.7612 9.94022 23.9268C9.54051 24.0923 9.19887 24.3727 8.9585 24.7324C8.71814 25.0922 8.58984 25.5151 8.58984 25.9478C8.58984 26.5279 8.82031 27.0843 9.23055 27.4945C9.64078 27.9048 10.1972 28.1353 10.7773 28.1353ZM10.7773 25.0103C11.026 25.0103 11.2644 25.109 11.4403 25.2848C11.6161 25.4607 11.7148 25.6991 11.7148 25.9478C11.7148 26.1964 11.6161 26.4349 11.4403 26.6107C11.2644 26.7865 11.026 26.8853 10.7773 26.8853C10.5287 26.8853 10.2902 26.7865 10.1144 26.6107C9.93862 26.4349 9.83984 26.1964 9.83984 25.9478C9.83984 25.6991 9.93862 25.4607 10.1144 25.2848C10.2902 25.109 10.5287 25.0103 10.7773 25.0103Z" fill="#231F20"/>
<path d="M7.33984 15.9478C7.33984 16.3804 7.46814 16.8033 7.7085 17.1631C7.94887 17.5228 8.29051 17.8032 8.69022 17.9687C9.08994 18.1343 9.52977 18.1776 9.9541 18.0932C10.3784 18.0088 10.7682 17.8005 11.0741 17.4946C11.3801 17.1886 11.5884 16.7988 11.6728 16.3745C11.7572 15.9502 11.7139 15.5103 11.5483 15.1106C11.3828 14.7109 11.1024 14.3693 10.7427 14.1289C10.3829 13.8885 9.95999 13.7603 9.52734 13.7603C8.94718 13.7603 8.39078 13.9907 7.98055 14.401C7.57031 14.8112 7.33984 15.3676 7.33984 15.9478ZM9.52734 15.0103C9.77598 15.0103 10.0144 15.109 10.1903 15.2848C10.3661 15.4607 10.4648 15.6991 10.4648 15.9478C10.4648 16.1964 10.3661 16.4349 10.1903 16.6107C10.0144 16.7865 9.77598 16.8853 9.52734 16.8853C9.2787 16.8853 9.04025 16.7865 8.86443 16.6107C8.68862 16.4349 8.58984 16.1964 8.58984 15.9478C8.58984 15.6991 8.68862 15.4607 8.86443 15.2848C9.04025 15.109 9.2787 15.0103 9.52734 15.0103Z" fill="#231F20"/>
<path d="M30.0217 7.32888L31.5842 8.89138C31.7019 9.00907 31.8615 9.07518 32.0279 9.07518C32.1944 9.07518 32.354 9.00907 32.4717 8.89138C32.5894 8.77369 32.6555 8.61406 32.6555 8.44763C32.6555 8.28119 32.5894 8.12157 32.4717 8.00388L30.9092 6.44138C30.7915 6.32369 30.6319 6.25757 30.4654 6.25757C30.299 6.25757 30.1394 6.32369 30.0217 6.44138C29.904 6.55907 29.8379 6.71869 29.8379 6.88513C29.8379 7.05156 29.904 7.21119 30.0217 7.32888Z" fill="#231F20"/>
<path d="M26.7148 23.7603H29.2148C29.3806 23.7603 29.5396 23.6944 29.6568 23.5772C29.774 23.46 29.8398 23.301 29.8398 23.1353C29.8398 22.9695 29.774 22.8105 29.6568 22.6933C29.5396 22.5761 29.3806 22.5103 29.2148 22.5103H26.7148C26.5491 22.5103 26.3901 22.5761 26.2729 22.6933C26.1557 22.8105 26.0898 22.9695 26.0898 23.1353C26.0898 23.301 26.1557 23.46 26.2729 23.5772C26.3901 23.6944 26.5491 23.7603 26.7148 23.7603Z" fill="#231F20"/>
<path d="M20.615 33.7602L23.115 33.1352C23.2808 33.0954 23.4239 32.9914 23.513 32.8461C23.6021 32.7007 23.6298 32.5259 23.59 32.3602C23.5502 32.1944 23.4462 32.0513 23.3009 31.9622C23.1555 31.8731 22.9808 31.8454 22.815 31.8852L20.315 32.5102C20.1493 32.55 20.0061 32.654 19.917 32.7993C19.8279 32.9446 19.8002 33.1194 19.84 33.2852C19.8798 33.4509 19.9838 33.5941 20.1291 33.6832C20.2745 33.7723 20.4493 33.8 20.615 33.7602Z" fill="#231F20"/>
<path d="M13.8716 24.279C14.0088 24.3526 14.1686 24.3723 14.3196 24.3343C14.4706 24.2963 14.602 24.2033 14.688 24.0734C14.7741 23.9436 14.8085 23.7864 14.7847 23.6325C14.7608 23.4786 14.6804 23.3392 14.5591 23.2415L12.6841 21.9915C12.5469 21.9179 12.3871 21.8981 12.2361 21.9361C12.0851 21.9742 11.9537 22.0672 11.8677 22.197C11.7817 22.3268 11.7472 22.4841 11.771 22.638C11.7949 22.7918 11.8753 22.9313 11.9966 23.029L13.8716 24.279Z" fill="#231F20"/>
<path d="M12.6836 17.4415C15.3836 18.7915 15.2586 18.7603 15.4649 18.7603C15.6048 18.7595 15.7404 18.7117 15.85 18.6246C15.9596 18.5375 16.0368 18.4162 16.0692 18.2801C16.1016 18.1439 16.0874 18.0008 16.0288 17.8737C15.9702 17.7466 15.8707 17.6428 15.7461 17.579L13.2461 16.329C13.1004 16.2684 12.9372 16.2651 12.7892 16.3198C12.6412 16.3745 12.5193 16.4832 12.4481 16.624C12.3769 16.7648 12.3616 16.9274 12.4053 17.079C12.449 17.2307 12.5484 17.3602 12.6836 17.4415Z" fill="#231F20"/>
<path d="M17.6838 7.57903L15.1838 8.82903C15.0592 8.89284 14.9597 8.99661 14.9011 9.12372C14.8425 9.25082 14.8283 9.39391 14.8607 9.53006C14.8932 9.6662 14.9703 9.78753 15.0799 9.8746C15.1895 9.96168 15.3251 10.0095 15.465 10.0103C15.6775 10.0103 15.5463 10.0415 18.2463 8.69153C18.3815 8.61017 18.4809 8.48067 18.5246 8.32902C18.5683 8.17738 18.553 8.01483 18.4818 7.87399C18.4106 7.73316 18.2888 7.62448 18.1407 7.56977C17.9927 7.51506 17.8295 7.51837 17.6838 7.57903Z" fill="#231F20"/>
</g>
<defs>
<clipPath id="clip0_1343_2852">
<rect width="40" height="40" fill="white" transform="translate(0.464844 0.0102539)"/>
</clipPath>
</defs>
</svg>
