<svg width="41" height="41" viewBox="0 0 41 41" fill="none" xmlns="http://www.w3.org/2000/svg">
<g clip-path="url(#clip0_1343_2913)">
<path d="M40.4648 16.2603C40.4648 16.0945 40.399 15.9355 40.2818 15.8183C40.1646 15.7011 40.0056 15.6353 39.8398 15.6353H38.5398C40.3836 12.5978 40.5148 8.13525 37.9648 8.13525C36.6586 8.13525 36.5023 8.66025 36.0898 8.76025C35.6961 8.079 35.5648 5.63525 33.5898 5.63525C33.3013 5.63216 33.0183 5.71487 32.7768 5.87288C32.5354 6.03089 32.3463 6.25709 32.2336 6.52275C31.1961 8.37275 31.2648 3.13525 28.5898 3.13525C27.7773 3.13525 27.3961 3.979 26.9898 4.87275C26.7898 5.32275 26.3648 6.26025 26.0898 6.26025C25.2523 6.26025 25.0023 4.96025 23.5898 5.01025C22.5836 5.04775 22.0711 5.63525 21.1836 6.88525C18.4148 3.4665 15.0148 3.76025 12.3398 3.76025C12.1741 3.76025 12.0151 3.8261 11.8979 3.94331C11.7807 4.06052 11.7148 4.21949 11.7148 4.38525V6.379C10.8398 6.2165 10.6461 6.26025 6.71484 6.26025C6.54908 6.26025 6.39011 6.3261 6.2729 6.44331C6.15569 6.56052 6.08984 6.71949 6.08984 6.88525C6.08794 8.5384 6.68777 10.1357 7.77734 11.379C7.29368 11.5118 6.84864 11.758 6.47909 12.0971C6.10954 12.4362 5.82613 12.8585 5.65234 13.329C5.15192 13.5121 4.70661 13.8201 4.35875 14.2237C4.01089 14.6274 3.77202 15.1133 3.66484 15.6353H1.08984C0.924083 15.6353 0.765112 15.7011 0.647902 15.8183C0.530692 15.9355 0.464844 16.0945 0.464844 16.2603C0.465911 20.0827 1.67542 23.8069 3.92046 26.9006C6.1655 29.9943 9.33115 32.299 12.9648 33.4853V36.2603C12.9648 36.426 13.0307 36.585 13.1479 36.7022C13.2651 36.8194 13.4241 36.8853 13.5898 36.8853H27.3398C27.5056 36.8853 27.6646 36.8194 27.7818 36.7022C27.899 36.585 27.9648 36.426 27.9648 36.2603V33.4853C31.5985 32.299 34.7642 29.9943 37.0092 26.9006C39.2543 23.8069 40.4638 20.0827 40.4648 16.2603ZM34.7023 15.6353C34.4978 15.2616 34.2088 14.941 33.8582 14.699C33.5077 14.457 33.1055 14.3003 32.6836 14.2415C32.4182 13.8617 32.0525 13.5631 31.6273 13.379C31.4853 12.4844 31.1505 11.6314 30.6461 10.879C31.3342 10.6271 32.0778 10.5668 32.7974 10.7047C33.5171 10.8426 34.1858 11.1735 34.732 11.6619C35.2782 12.1503 35.6814 12.778 35.8986 13.4779C36.1157 14.1777 36.1386 14.9234 35.9648 15.6353H34.7023ZM9.30234 15.6353C9.40112 15.2598 9.58597 14.9126 9.84224 14.621C10.0985 14.3294 10.4192 14.1015 10.7788 13.9553C11.1384 13.8092 11.5272 13.7488 11.9142 13.7789C12.3012 13.8091 12.6759 13.9289 13.0086 14.129C12.6923 14.5792 12.4789 15.0934 12.3836 15.6353H9.30234ZM18.5023 15.6353H13.6773C13.8213 15.1056 14.1355 14.6381 14.5715 14.3048C15.0075 13.9715 15.541 13.7909 16.0898 13.7909C16.6387 13.7909 17.1722 13.9715 17.6082 14.3048C18.0442 14.6381 18.3584 15.1056 18.5023 15.6353ZM19.7836 15.6353C19.695 15.122 19.5014 14.6326 19.2148 14.1978C19.2773 14.1678 19.3343 14.1277 19.3836 14.079C19.7634 13.7902 20.2095 13.6012 20.6811 13.5291C21.1527 13.457 21.6349 13.5043 22.0836 13.6665C22.1798 13.6987 22.2825 13.7071 22.3827 13.6907C22.4829 13.6744 22.5776 13.6339 22.6586 13.5728C23.1349 13.3021 23.6733 13.1598 24.2211 13.1598C24.7689 13.1598 25.3073 13.3021 25.7836 13.5728C26.2023 13.8915 26.4086 13.5103 27.3461 13.5103C29.0336 13.5103 28.9086 14.304 29.5461 14.279H29.8461C30.8086 14.279 31.5523 14.6728 31.7211 15.0415C31.9148 15.554 32.3023 15.3478 32.9711 15.6665L19.7836 15.6353ZM30.2773 13.029C30.0962 13.0196 29.9147 13.0196 29.7336 13.029C29.2344 12.6764 28.664 12.4376 28.0624 12.3296C27.4609 12.2217 26.843 12.247 26.2523 12.404C25.6261 12.0924 24.9362 11.9303 24.2367 11.9303C23.5373 11.9303 22.8473 12.0924 22.2211 12.404C21.9618 12.099 21.6481 11.8447 21.2961 11.654C21.8225 10.8555 22.5668 10.2247 23.4409 9.83645C24.3149 9.44819 25.282 9.31875 26.2273 9.46349C27.1727 9.60822 28.0567 10.0211 28.7746 10.653C29.4924 11.285 30.014 12.1096 30.2773 13.029ZM23.5898 6.26025C24.3586 6.26025 24.5586 7.51025 26.0898 7.51025C27.6211 7.51025 28.1211 4.954 28.6586 4.38525C29.9461 4.529 29.9086 8.13525 31.7148 8.13525C33.2336 8.13525 33.2336 6.88525 33.5898 6.88525C34.8398 6.88525 34.3961 10.229 36.1711 10.0103C37.2086 9.879 36.9648 9.38525 37.9648 9.38525C38.9648 9.38525 39.0148 12.6415 37.3398 15.229C37.4341 14.2985 37.2805 13.3595 36.8945 12.5076C36.5086 11.6556 35.904 10.921 35.1423 10.3782C34.3806 9.8355 33.4888 9.50401 32.5575 9.41743C31.6262 9.33084 30.6886 9.49225 29.8398 9.88525C28.8637 8.92997 27.5996 8.32338 26.2436 8.15954C24.8876 7.99569 23.5155 8.28373 22.3398 8.979C22.2101 8.65311 22.0598 8.33581 21.8898 8.029C22.8961 6.5665 23.1461 6.26025 23.5898 6.26025ZM12.9648 5.01025H14.6648C16.1243 5.01642 17.5462 5.47297 18.7364 6.31754C19.9266 7.1621 20.8271 8.3535 21.3148 9.729C20.8199 10.175 20.3981 10.6959 20.0648 11.2728L19.8398 11.2603C19.4404 10.7328 18.8839 10.3457 18.2504 10.1548C17.6169 9.96385 16.9392 9.97889 16.3148 10.1978C15.9501 9.86006 15.5081 9.61685 15.0277 9.48938C14.5472 9.36191 14.0428 9.35406 13.5586 9.4665C12.8586 7.8665 12.9648 6.7915 12.9648 5.01025ZM11.7711 7.679C11.868 8.47369 12.0785 9.25036 12.3961 9.98525C12.2983 10.0505 12.2044 10.1215 12.1148 10.1978C11.5858 10.012 11.0165 9.972 10.4667 10.082C9.91686 10.1919 9.40675 10.4478 8.98984 10.8228C8.09086 9.9344 7.522 8.76581 7.37734 7.51025C10.6273 7.51025 10.8398 7.454 11.7711 7.679ZM6.29609 14.4415C6.41227 14.4158 6.51869 14.3574 6.60283 14.2732C6.68698 14.1891 6.74535 14.0827 6.77109 13.9665C6.86555 13.5542 7.09664 13.186 7.42682 12.9216C7.757 12.6572 8.16687 12.5123 8.58984 12.5103C8.72734 12.5103 9.21484 12.6728 9.46484 12.2228C9.70662 11.8018 10.1023 11.491 10.5685 11.3558C11.0348 11.2205 11.5353 11.2714 11.9648 11.4978C12.7961 11.9415 12.8023 10.6353 14.2148 10.6353C15.6273 10.6353 15.6648 11.9228 16.4523 11.4978C16.8818 11.2714 17.3824 11.2205 17.8486 11.3558C18.3149 11.491 18.7106 11.8018 18.9523 12.2228C19.0135 12.3312 19.1057 12.4188 19.2171 12.4745C19.3284 12.5302 19.4539 12.5513 19.5773 12.5353C19.2644 12.6464 18.9711 12.8068 18.7086 13.0103C18.4851 13.0064 18.2615 13.019 18.0398 13.0478C17.4112 12.6692 16.6853 12.4834 15.952 12.5134C15.2188 12.5434 14.5105 12.7878 13.9148 13.2165C13.3978 12.8431 12.7941 12.6077 12.1608 12.5326C11.5275 12.4576 10.8855 12.5452 10.2955 12.7873C9.70553 13.0295 9.18703 13.4181 8.78905 13.9164C8.39107 14.4147 8.12676 15.0063 8.02109 15.6353H4.95234C5.05843 15.3397 5.23707 15.0754 5.47185 14.8669C5.70664 14.6583 5.99006 14.512 6.29609 14.4415ZM26.7148 35.6353H14.2148V33.8478C16.8648 34.5103 18.5461 34.3853 22.3398 34.3853C23.8147 34.3856 25.284 34.2051 26.7148 33.8478V35.6353ZM22.3398 33.1353H18.5898C14.2205 33.1383 10.0204 31.4464 6.87306 28.4157C3.72575 25.3849 1.87667 21.2516 1.71484 16.8853H39.2148C39.053 21.2516 37.2039 25.3849 34.0566 28.4157C30.9093 31.4464 26.7092 33.1383 22.3398 33.1353Z" fill="#231F20"/>
</g>
<defs>
<clipPath id="clip0_1343_2913">
<rect width="40" height="40" fill="white" transform="translate(0.464844 0.0102539)"/>
</clipPath>
</defs>
</svg>
