<svg width="41" height="41" viewBox="0 0 41 41" fill="none" xmlns="http://www.w3.org/2000/svg">
<g clip-path="url(#clip0_1343_2927)">
<path d="M27.8401 21.2603C27.8401 12.2228 28.4651 12.2415 25.1901 8.13525C23.4026 5.83525 23.4651 5.579 23.4651 4.38525C23.6309 4.38525 23.7898 4.31941 23.907 4.2022C24.0242 4.08499 24.0901 3.92601 24.0901 3.76025V1.354C24.0884 0.998126 23.9463 0.657292 23.6947 0.405645C23.4431 0.153999 23.1022 0.0118977 22.7463 0.0102539L19.1838 0.0102539C18.828 0.0118977 18.4871 0.153999 18.2355 0.405645C17.9838 0.657292 17.8417 0.998126 17.8401 1.354V3.76025C17.8401 3.92601 17.9059 4.08499 18.0231 4.2022C18.1404 4.31941 18.2993 4.38525 18.4651 4.38525V5.01025C18.4651 7.129 14.0901 9.81025 14.0901 13.7603C14.0901 22.3415 13.9276 21.6353 14.5838 23.679C15.3588 26.104 15.7713 28.9978 14.7276 31.3353C14.2658 32.2835 14.0468 33.3315 14.0901 34.3853C14.0901 36.354 16.0151 40.0103 17.8401 40.0103C18.4043 39.9967 18.9434 39.774 19.3526 39.3853C19.7828 39.8082 20.3618 40.0452 20.9651 40.0452C21.5683 40.0452 22.1474 39.8082 22.5776 39.3853C22.9854 39.7761 23.5253 39.9992 24.0901 40.0103C25.9151 40.0103 27.8401 36.354 27.8401 34.3853C27.8873 33.3325 27.6725 32.2846 27.2151 31.3353C25.4463 27.4103 27.8401 23.2915 27.8401 21.2603ZM15.3401 14.3853H26.5901V20.6353H15.3401V14.3853ZM19.0901 1.354C19.0901 1.2165 18.9276 1.26025 22.7463 1.26025C22.8838 1.26025 22.8401 1.26025 22.8401 3.13525H19.0901V1.354ZM17.7213 8.854C19.3213 6.84775 19.7151 6.2165 19.7151 4.38525H22.2151V5.01025C22.2151 7.6665 26.0713 9.954 26.5401 13.1353H15.3901C15.6213 11.5603 16.6901 10.1978 17.7213 8.879V8.854ZM24.0901 38.7603C23.7781 38.7153 23.4934 38.5574 23.2901 38.3165C23.4838 37.904 23.5776 37.6478 23.6776 37.4728C23.8157 37.4226 23.9317 37.3254 24.0053 37.1983C24.0789 37.0711 24.1053 36.9221 24.08 36.7774C24.0546 36.6326 23.9791 36.5015 23.8666 36.4069C23.7542 36.3124 23.612 36.2604 23.4651 36.2603C22.1776 36.2603 22.4401 38.7603 20.9651 38.7603C19.4901 38.7603 19.7776 36.2603 18.4651 36.2603C18.3182 36.2604 18.176 36.3124 18.0636 36.4069C17.9511 36.5015 17.8756 36.6326 17.8502 36.7774C17.8248 36.9221 17.8513 37.0711 17.9249 37.1983C17.9984 37.3254 18.1145 37.4226 18.2526 37.4728C18.3463 37.6353 18.4526 37.9228 18.6401 38.3165C18.4367 38.5574 18.1521 38.7153 17.8401 38.7603C17.1151 38.7603 15.3401 36.1228 15.3401 34.3853C15.2979 33.5086 15.4785 32.6356 15.8651 31.8478C17.6776 27.7915 15.6151 23.2165 15.3963 21.8853H26.5338C26.2901 23.3665 25.3401 24.7978 25.3401 28.1353C25.3401 31.9665 26.5901 31.5165 26.5901 34.3853C26.5901 36.1228 24.8151 38.7603 24.0901 38.7603Z" fill="#231F20"/>
</g>
<defs>
<clipPath id="clip0_1343_2927">
<rect width="40" height="40" fill="white" transform="translate(0.964844 0.0102539)"/>
</clipPath>
</defs>
</svg>
