<svg width="25" height="25" viewBox="0 0 25 25" fill="none" xmlns="http://www.w3.org/2000/svg">
<path d="M6.46484 20.0769L7.96484 16.3269C8.11484 15.9436 8.35651 15.6394 8.68984 15.4144C9.02318 15.1894 9.39818 15.0769 9.81484 15.0769H11.4648V11.0519C8.91484 10.9686 6.77734 10.5936 5.05234 9.9269C3.32734 9.26024 2.46484 8.4769 2.46484 7.5769C2.46484 6.61024 3.43984 5.78524 5.38984 5.1019C7.33984 4.41857 9.69818 4.0769 12.4648 4.0769C15.2482 4.0769 17.6107 4.41857 19.5523 5.1019C21.494 5.78524 22.4648 6.61024 22.4648 7.5769C22.4648 8.4769 21.6023 9.26024 19.8773 9.9269C18.1523 10.5936 16.0148 10.9686 13.4648 11.0519V15.0769H15.1148C15.5148 15.0769 15.8857 15.1894 16.2273 15.4144C16.569 15.6394 16.8148 15.9436 16.9648 16.3269L18.4648 20.0769H16.4648L15.2648 17.0769H9.66484L8.46484 20.0769H6.46484ZM12.4648 9.0769C14.0815 9.0769 15.6065 8.93524 17.0398 8.6519C18.4732 8.36857 19.5232 8.01024 20.1898 7.5769C19.5232 7.14357 18.4732 6.78524 17.0398 6.5019C15.6065 6.21857 14.0815 6.0769 12.4648 6.0769C10.8482 6.0769 9.32318 6.21857 7.88984 6.5019C6.45651 6.78524 5.40651 7.14357 4.73984 7.5769C5.40651 8.01024 6.45651 8.36857 7.88984 8.6519C9.32318 8.93524 10.8482 9.0769 12.4648 9.0769Z" fill="#888E9C"/>
</svg>
