<svg width="104" height="44" viewBox="0 0 104 44" fill="none" xmlns="http://www.w3.org/2000/svg">
<circle cx="51.2949" cy="22.0769" r="20.3398" stroke="black" stroke-width="2"/>
<path fill-rule="evenodd" clip-rule="evenodd" d="M8.5625 12.8367H17.916C20.1252 12.8367 21.916 14.6275 21.916 16.8367V27.317C21.916 29.5262 20.1252 31.317 17.916 31.317H8.5625L8.5625 12.8367ZM6.5625 10.8367H8.5625H17.916C21.2297 10.8367 23.916 13.523 23.916 16.8367V27.317C23.916 30.6307 21.2297 33.317 17.916 33.317L8.5625 33.317H6.5625L2.17773 33.317H0.177734V31.317V12.8367V10.8367H2.17773H6.5625ZM6.5625 31.317H2.17773V12.8367H6.5625L6.5625 31.317Z" fill="black"/>
<path fill-rule="evenodd" clip-rule="evenodd" d="M94.832 12.8367H85.4785C83.2694 12.8367 81.4785 14.6275 81.4785 16.8367V27.317C81.4785 29.5262 83.2694 31.317 85.4785 31.317H94.832L94.832 12.8367ZM96.832 10.8367H94.832H85.4785C82.1648 10.8367 79.4785 13.523 79.4785 16.8367V27.317C79.4785 30.6307 82.1648 33.317 85.4785 33.317L94.832 33.317H96.832L101.217 33.317H103.217V31.317V12.8367V10.8367H101.217H96.832ZM96.832 31.317H101.217V12.8367H96.832L96.832 31.317Z" fill="black"/>
</svg>
