<svg width="105" height="104" viewBox="0 0 105 104" fill="none" xmlns="http://www.w3.org/2000/svg">
<circle cx="52.0898" cy="52.0769" r="20.3398" stroke="black" stroke-width="2"/>
<path fill-rule="evenodd" clip-rule="evenodd" d="M9.35742 42.8367H18.7109C20.9201 42.8367 22.7109 44.6275 22.7109 46.8367V57.317C22.7109 59.5262 20.9201 61.317 18.7109 61.317H9.35742L9.35742 42.8367ZM7.35742 40.8367H9.35742H18.7109C22.0246 40.8367 24.7109 43.523 24.7109 46.8367V57.317C24.7109 60.6307 22.0246 63.317 18.7109 63.317L9.35742 63.317H7.35742L2.97266 63.317H0.972656V61.317V42.8367V40.8367H2.97266H7.35742ZM7.35742 61.317H2.97266V42.8367H7.35742L7.35742 61.317Z" fill="black"/>
<path fill-rule="evenodd" clip-rule="evenodd" d="M95.627 42.8367H86.2734C84.0643 42.8367 82.2734 44.6275 82.2734 46.8367V57.317C82.2734 59.5262 84.0643 61.317 86.2734 61.317H95.627L95.627 42.8367ZM97.627 40.8367H95.627H86.2734C82.9597 40.8367 80.2734 43.523 80.2734 46.8367V57.317C80.2734 60.6307 82.9597 63.317 86.2734 63.317L95.627 63.317H97.627L102.012 63.317H104.012V61.317V42.8367V40.8367H102.012H97.627ZM97.627 61.317H102.012V42.8367H97.627L97.627 61.317Z" fill="black"/>
<path fill-rule="evenodd" clip-rule="evenodd" d="M42.8496 8.99072L42.8496 18.3442C42.8496 20.5534 44.6405 22.3442 46.8496 22.3442L57.33 22.3442C59.5391 22.3442 61.33 20.5534 61.33 18.3442L61.33 8.99072L42.8496 8.99072ZM40.8496 6.99072L40.8496 8.99072L40.8496 18.3442C40.8496 21.6579 43.5359 24.3442 46.8496 24.3442L57.33 24.3442C60.6437 24.3442 63.33 21.6579 63.33 18.3442L63.33 8.99072L63.33 6.99072L63.33 2.60596L63.33 0.605958L61.33 0.605958L42.8496 0.605957L40.8496 0.605957L40.8496 2.60596L40.8496 6.99072ZM61.33 6.99072L61.33 2.60596L42.8496 2.60596L42.8496 6.99072L61.33 6.99072Z" fill="black"/>
<path fill-rule="evenodd" clip-rule="evenodd" d="M61.3301 95.1633L61.3301 85.8098C61.3301 83.6007 59.5392 81.8098 57.3301 81.8098L46.8497 81.8098C44.6406 81.8098 42.8497 83.6007 42.8497 85.8098L42.8497 95.1633L61.3301 95.1633ZM63.3301 97.1633L63.3301 95.1633L63.3301 85.8098C63.3301 82.4961 60.6438 79.8098 57.3301 79.8098L46.8497 79.8098C43.536 79.8098 40.8497 82.4961 40.8497 85.8098L40.8497 95.1633L40.8497 97.1633L40.8497 101.548L40.8497 103.548L42.8497 103.548L61.3301 103.548L63.3301 103.548L63.3301 101.548L63.3301 97.1633ZM42.8497 97.1633L42.8497 101.548L61.3301 101.548L61.3301 97.1633L42.8497 97.1633Z" fill="black"/>
</svg>
