<svg width="104" height="104" viewBox="0 0 104 104" fill="none" xmlns="http://www.w3.org/2000/svg">
<circle cx="51.8848" cy="52.0769" r="20.3398" stroke="black" stroke-width="2"/>
<path fill-rule="evenodd" clip-rule="evenodd" d="M18.0485 22.7924L26.1489 27.4691C28.0621 28.5737 28.7176 31.02 27.613 32.9332L22.3728 42.0095C21.2683 43.9226 18.8219 44.5781 16.9087 43.4736L8.80836 38.7968L18.0485 22.7924ZM17.3165 20.0603L19.0485 21.0603L27.1489 25.7371C30.0187 27.3939 31.0019 31.0635 29.3451 33.9332L24.1049 43.0095C22.448 45.8792 18.7785 46.8625 15.9087 45.2056L7.80836 40.5289L6.07631 39.5289L2.27899 37.3365L0.546937 36.3365L1.54694 34.6044L10.7871 18.6L11.7871 16.8679L13.5192 17.8679L17.3165 20.0603ZM7.07631 37.7968L3.27899 35.6044L12.5192 19.6L16.3165 21.7924L7.07631 37.7968Z" fill="black"/>
<path fill-rule="evenodd" clip-rule="evenodd" d="M18.0485 83.1613L26.1489 78.4845C28.0621 77.3799 28.7176 74.9336 27.613 73.0204L22.3728 63.9442C21.2683 62.031 18.8219 61.3755 16.9087 62.4801L8.80836 67.1568L18.0485 83.1613ZM17.3165 85.8933L19.0485 84.8933L27.1489 80.2166C30.0187 78.5597 31.0019 74.8902 29.3451 72.0204L24.1049 62.9442C22.448 60.0744 18.7785 59.0911 15.9087 60.748L7.80836 65.4248L6.07631 66.4248L2.27899 68.6171L0.546937 69.6171L1.54694 71.3492L10.7871 87.3536L11.7871 89.0857L13.5192 88.0857L17.3165 85.8933ZM7.07631 68.1568L3.27899 70.3492L12.5192 86.3536L16.3165 84.1613L7.07631 68.1568Z" fill="black"/>
<path fill-rule="evenodd" clip-rule="evenodd" d="M85.721 22.7924L77.6206 27.4691C75.7074 28.5737 75.0519 31.02 76.1565 32.9332L81.3967 42.0095C82.5013 43.9226 84.9476 44.5781 86.8608 43.4736L94.9612 38.7968L85.721 22.7924ZM86.4531 20.0603L84.721 21.0603L76.6206 25.7371C73.7509 27.3939 72.7676 31.0635 74.4245 33.9332L79.6646 43.0095C81.3215 45.8792 84.991 46.8625 87.8608 45.2056L95.9612 40.5289L97.6932 39.5289L101.491 37.3365L103.223 36.3365L102.223 34.6044L92.9824 18.6L91.9824 16.8679L90.2504 17.8679L86.4531 20.0603ZM96.6932 37.7968L100.491 35.6044L91.2504 19.6L87.4531 21.7924L96.6932 37.7968Z" fill="black"/>
<path fill-rule="evenodd" clip-rule="evenodd" d="M85.721 83.1613L77.6206 78.4845C75.7074 77.3799 75.0519 74.9336 76.1565 73.0204L81.3967 63.9442C82.5013 62.031 84.9476 61.3755 86.8608 62.4801L94.9612 67.1568L85.721 83.1613ZM86.4531 85.8933L84.721 84.8933L76.6206 80.2166C73.7509 78.5597 72.7676 74.8902 74.4245 72.0204L79.6646 62.9442C81.3215 60.0744 84.991 59.0911 87.8608 60.748L95.9612 65.4248L97.6932 66.4248L101.491 68.6171L103.223 69.6171L102.223 71.3492L92.9824 87.3536L91.9824 89.0857L90.2504 88.0857L86.4531 85.8933ZM96.6932 68.1568L100.491 70.3492L91.2504 86.3536L87.4531 84.1613L96.6932 68.1568Z" fill="black"/>
<path fill-rule="evenodd" clip-rule="evenodd" d="M42.6445 8.99072L42.6445 18.3442C42.6445 20.5534 44.4354 22.3442 46.6445 22.3442L57.1249 22.3442C59.334 22.3442 61.1249 20.5534 61.1249 18.3442L61.1249 8.99072L42.6445 8.99072ZM40.6445 6.99072L40.6445 8.99072L40.6445 18.3442C40.6445 21.6579 43.3308 24.3442 46.6445 24.3442L57.1249 24.3442C60.4386 24.3442 63.1249 21.6579 63.1249 18.3442L63.1249 8.99072L63.1249 6.99072L63.1249 2.60596L63.1249 0.605958L61.1249 0.605958L42.6445 0.605957L40.6445 0.605957L40.6445 2.60596L40.6445 6.99072ZM61.1249 6.99072L61.1249 2.60596L42.6445 2.60596L42.6445 6.99072L61.1249 6.99072Z" fill="black"/>
<path fill-rule="evenodd" clip-rule="evenodd" d="M61.125 95.1633L61.125 85.8098C61.125 83.6007 59.3341 81.8098 57.125 81.8098L46.6447 81.8098C44.4355 81.8098 42.6447 83.6007 42.6447 85.8098L42.6447 95.1633L61.125 95.1633ZM63.125 97.1633L63.125 95.1633L63.125 85.8098C63.125 82.4961 60.4387 79.8098 57.125 79.8098L46.6447 79.8098C43.3309 79.8098 40.6447 82.4961 40.6447 85.8098L40.6447 95.1633L40.6447 97.1633L40.6447 101.548L40.6447 103.548L42.6447 103.548L61.125 103.548L63.125 103.548L63.125 101.548L63.125 97.1633ZM42.6447 97.1633L42.6447 101.548L61.125 101.548L61.125 97.1633L42.6447 97.1633Z" fill="black"/>
</svg>
