<svg width="161" height="104" viewBox="0 0 161 104" fill="none" xmlns="http://www.w3.org/2000/svg">
<path fill-rule="evenodd" clip-rule="evenodd" d="M51.127 8.99072L51.127 18.3442C51.127 20.5534 52.9178 22.3442 55.127 22.3442L65.6073 22.3442C67.8164 22.3442 69.6073 20.5534 69.6073 18.3442L69.6073 8.99072L51.127 8.99072ZM49.127 6.99072L49.127 8.99072L49.127 18.3442C49.127 21.6579 51.8132 24.3442 55.127 24.3442L65.6073 24.3442C68.921 24.3442 71.6073 21.6579 71.6073 18.3442L71.6073 8.99072L71.6073 6.99072L71.6073 2.60596L71.6073 0.605958L69.6073 0.605958L51.127 0.605957L49.127 0.605957L49.127 2.60596L49.127 6.99072ZM69.6073 6.99072L69.6073 2.60596L51.127 2.60596L51.127 6.99072L69.6073 6.99072Z" fill="black"/>
<path fill-rule="evenodd" clip-rule="evenodd" d="M9.04297 61.1543L18.3965 61.1543C20.6056 61.1543 22.3965 59.3634 22.3965 57.1543L22.3965 46.674C22.3965 44.4648 20.6056 42.674 18.3965 42.674L9.04297 42.674L9.04297 61.1543ZM7.04297 63.1543L9.04297 63.1543L18.3965 63.1543C21.7102 63.1543 24.3965 60.468 24.3965 57.1543L24.3965 46.674C24.3965 43.3602 21.7102 40.674 18.3965 40.674L9.04297 40.674L7.04297 40.674L2.6582 40.674L0.658203 40.674L0.658203 42.674L0.658203 61.1543L0.658203 63.1543L2.6582 63.1543L7.04297 63.1543ZM7.04297 42.674L2.6582 42.674L2.6582 61.1543L7.04297 61.1543L7.04297 42.674Z" fill="black"/>
<path fill-rule="evenodd" clip-rule="evenodd" d="M152.377 61.1543L143.023 61.1543C140.814 61.1543 139.023 59.3634 139.023 57.1543L139.023 46.674C139.023 44.4648 140.814 42.674 143.023 42.674L152.377 42.674L152.377 61.1543ZM154.377 63.1543L152.377 63.1543L143.023 63.1543C139.71 63.1543 137.023 60.468 137.023 57.1543L137.023 46.674C137.023 43.3602 139.71 40.674 143.023 40.674L152.377 40.674L154.377 40.674L158.762 40.674L160.762 40.674V42.674L160.762 61.1543V63.1543L158.762 63.1543L154.377 63.1543ZM154.377 42.674L158.762 42.674L158.762 61.1543L154.377 61.1543L154.377 42.674Z" fill="black"/>
<path fill-rule="evenodd" clip-rule="evenodd" d="M111.113 88.2107L111.113 97.5642C111.113 99.7733 109.322 101.564 107.113 101.564L96.6329 101.564C94.4238 101.564 92.6329 99.7733 92.6329 97.5642L92.6329 88.2107L111.113 88.2107ZM113.113 86.2107L113.113 88.2107L113.113 97.5642C113.113 100.878 110.427 103.564 107.113 103.564L96.6329 103.564C93.3192 103.564 90.6329 100.878 90.6329 97.5642L90.6329 88.2107L90.6329 86.2107L90.6329 81.8259L90.6329 79.8259L92.6329 79.8259L111.113 79.8259L113.113 79.8259L113.113 81.8259L113.113 86.2107ZM92.6329 86.2107L92.6329 81.8259L111.113 81.8259L111.113 86.2107L92.6329 86.2107Z" fill="black"/>
<path fill-rule="evenodd" clip-rule="evenodd" d="M92.6328 8.99072L92.6328 18.3442C92.6328 20.5534 94.4237 22.3442 96.6328 22.3442L107.113 22.3442C109.322 22.3442 111.113 20.5534 111.113 18.3442L111.113 8.99072L92.6328 8.99072ZM90.6328 6.99072L90.6328 8.99072L90.6328 18.3442C90.6328 21.6579 93.3191 24.3442 96.6328 24.3442L107.113 24.3442C110.427 24.3442 113.113 21.6579 113.113 18.3442L113.113 8.99072L113.113 6.99072L113.113 2.60596L113.113 0.605958L111.113 0.605958L92.6328 0.605957L90.6328 0.605957L90.6328 2.60596L90.6328 6.99072ZM111.113 6.99072L111.113 2.60596L92.6328 2.60596L92.6328 6.99072L111.113 6.99072Z" fill="black"/>
<path fill-rule="evenodd" clip-rule="evenodd" d="M69.6074 88.2107L69.6074 97.5642C69.6074 99.7733 67.8166 101.564 65.6074 101.564L55.1271 101.564C52.9179 101.564 51.1271 99.7733 51.1271 97.5642L51.1271 88.2107L69.6074 88.2107ZM71.6074 86.2107L71.6074 88.2107L71.6074 97.5642C71.6074 100.878 68.9211 103.564 65.6074 103.564L55.1271 103.564C51.8134 103.564 49.1271 100.878 49.1271 97.5642L49.1271 88.2107L49.1271 86.2107L49.1271 81.8259L49.1271 79.8259L51.1271 79.8259L69.6074 79.8259L71.6074 79.8259L71.6074 81.8259L71.6074 86.2107ZM51.1271 86.2107L51.1271 81.8259L69.6074 81.8259L69.6074 86.2107L51.1271 86.2107Z" fill="black"/>
<rect x="31.6895" y="31.3286" width="98.041" height="41.1709" stroke="black" stroke-width="2"/>
</svg>
