<svg width="181" height="104" viewBox="0 0 181 104" fill="none" xmlns="http://www.w3.org/2000/svg">
<path fill-rule="evenodd" clip-rule="evenodd" d="M8.86914 61.1543L18.2227 61.1543C20.4318 61.1543 22.2227 59.3634 22.2227 57.1543L22.2227 46.674C22.2227 44.4648 20.4318 42.674 18.2227 42.674L8.86914 42.674L8.86914 61.1543ZM6.86914 63.1543L8.86914 63.1543L18.2227 63.1543C21.5364 63.1543 24.2227 60.468 24.2227 57.1543L24.2227 46.674C24.2227 43.3602 21.5364 40.674 18.2227 40.674L8.86914 40.674L6.86914 40.674L2.48438 40.674L0.484375 40.674L0.484375 42.674L0.484375 61.1543L0.484375 63.1543L2.48438 63.1543L6.86914 63.1543ZM6.86914 42.674L2.48438 42.674L2.48438 61.1543L6.86914 61.1543L6.86914 42.674Z" fill="black"/>
<path fill-rule="evenodd" clip-rule="evenodd" d="M172.203 61.1543L162.85 61.1543C160.64 61.1543 158.85 59.3634 158.85 57.1543L158.85 46.674C158.85 44.4648 160.64 42.674 162.85 42.674L172.203 42.674L172.203 61.1543ZM174.203 63.1543L172.203 63.1543L162.85 63.1543C159.536 63.1543 156.85 60.468 156.85 57.1543L156.85 46.674C156.85 43.3602 159.536 40.674 162.85 40.674L172.203 40.674L174.203 40.674L178.588 40.674L180.588 40.674V42.674L180.588 61.1543V63.1543L178.588 63.1543L174.203 63.1543ZM174.203 42.674L178.588 42.674L178.588 61.1543L174.203 61.1543L174.203 42.674Z" fill="black"/>
<path fill-rule="evenodd" clip-rule="evenodd" d="M43.8145 8.99072L43.8145 18.3442C43.8145 20.5534 45.6053 22.3442 47.8145 22.3442L58.2948 22.3442C60.5039 22.3442 62.2948 20.5534 62.2948 18.3442L62.2948 8.99072L43.8145 8.99072ZM41.8145 6.99072L41.8145 8.99072L41.8145 18.3442C41.8145 21.6579 44.5007 24.3442 47.8145 24.3442L58.2948 24.3442C61.6085 24.3442 64.2948 21.6579 64.2948 18.3442L64.2948 8.99072L64.2948 6.99072L64.2948 2.60596L64.2948 0.605958L62.2948 0.605958L43.8145 0.605957L41.8145 0.605957L41.8145 2.60596L41.8145 6.99072ZM62.2948 6.99072L62.2948 2.60596L43.8145 2.60596L43.8145 6.99072L62.2948 6.99072Z" fill="black"/>
<path fill-rule="evenodd" clip-rule="evenodd" d="M81.2949 8.99072L81.2949 18.3442C81.2949 20.5534 83.0858 22.3442 85.2949 22.3442L95.7753 22.3442C97.9844 22.3442 99.7753 20.5534 99.7753 18.3442L99.7753 8.99072L81.2949 8.99072ZM79.2949 6.99072L79.2949 8.99072L79.2949 18.3442C79.2949 21.6579 81.9812 24.3442 85.2949 24.3442L95.7753 24.3442C99.089 24.3442 101.775 21.6579 101.775 18.3442L101.775 8.99072L101.775 6.99072L101.775 2.60596L101.775 0.605958L99.7753 0.605958L81.2949 0.605957L79.2949 0.605957L79.2949 2.60596L79.2949 6.99072ZM99.7753 6.99072L99.7753 2.60596L81.2949 2.60596L81.2949 6.99072L99.7753 6.99072Z" fill="black"/>
<path fill-rule="evenodd" clip-rule="evenodd" d="M118.775 8.99072L118.775 18.3442C118.775 20.5534 120.566 22.3442 122.775 22.3442L133.256 22.3442C135.465 22.3442 137.256 20.5534 137.256 18.3442L137.256 8.99072L118.775 8.99072ZM116.775 6.99072L116.775 8.99072L116.775 18.3442C116.775 21.6579 119.462 24.3442 122.775 24.3442L133.256 24.3442C136.569 24.3442 139.256 21.6579 139.256 18.3442L139.256 8.99072L139.256 6.99072L139.256 2.60596L139.256 0.605958L137.256 0.605958L118.775 0.605957L116.775 0.605957L116.775 2.60596L116.775 6.99072ZM137.256 6.99072L137.256 2.60596L118.775 2.60596L118.775 6.99072L137.256 6.99072Z" fill="black"/>
<path fill-rule="evenodd" clip-rule="evenodd" d="M137.256 87.8682L137.256 97.2217C137.256 99.4308 135.465 101.222 133.256 101.222L122.776 101.222C120.566 101.222 118.776 99.4308 118.776 97.2217L118.776 87.8682L137.256 87.8682ZM139.256 85.8682L139.256 87.8682L139.256 97.2217C139.256 100.535 136.57 103.222 133.256 103.222L122.776 103.222C119.462 103.222 116.776 100.535 116.776 97.2217L116.776 87.8682L116.776 85.8682L116.776 81.4834L116.776 79.4834L118.776 79.4834L137.256 79.4834L139.256 79.4834L139.256 81.4834L139.256 85.8682ZM118.776 85.8682L118.776 81.4834L137.256 81.4834L137.256 85.8682L118.776 85.8682Z" fill="black"/>
<path fill-rule="evenodd" clip-rule="evenodd" d="M99.7754 87.8682L99.7754 97.2217C99.7754 99.4308 97.9845 101.222 95.7754 101.222L85.295 101.222C83.0859 101.222 81.295 99.4308 81.295 97.2217L81.295 87.8682L99.7754 87.8682ZM101.775 85.8682L101.775 87.8682L101.775 97.2217C101.775 100.535 99.0891 103.222 95.7754 103.222L85.295 103.222C81.9813 103.222 79.295 100.535 79.295 97.2217L79.295 87.8682L79.295 85.8682L79.295 81.4834L79.295 79.4834L81.295 79.4834L99.7754 79.4834L101.775 79.4834L101.775 81.4834L101.775 85.8682ZM81.295 85.8682L81.295 81.4834L99.7754 81.4834L99.7754 85.8682L81.295 85.8682Z" fill="black"/>
<path fill-rule="evenodd" clip-rule="evenodd" d="M62.2949 87.8682L62.2949 97.2217C62.2949 99.4308 60.5041 101.222 58.2949 101.222L47.8146 101.222C45.6054 101.222 43.8146 99.4308 43.8146 97.2217L43.8146 87.8682L62.2949 87.8682ZM64.2949 85.8682L64.2949 87.8682L64.2949 97.2217C64.2949 100.535 61.6086 103.222 58.2949 103.222L47.8146 103.222C44.5009 103.222 41.8146 100.535 41.8146 97.2217L41.8146 87.8682L41.8146 85.8682L41.8146 81.4834L41.8146 79.4834L43.8146 79.4834L62.2949 79.4834L64.2949 79.4834L64.2949 81.4834L64.2949 85.8682ZM43.8146 85.8682L43.8146 81.4834L62.2949 81.4834L62.2949 85.8682L43.8146 85.8682Z" fill="black"/>
<rect x="31.5156" y="31.3286" width="118.04" height="41.1709" stroke="black" stroke-width="2"/>
</svg>
